<svg xmlns="http://www.w3.org/2000/svg" version="1.1" xmlns:xlink="http://www.w3.org/1999/xlink" xmlns:svgjs="http://svgjs.dev/svgjs" width="1440" height="180" preserveAspectRatio="none" viewBox="0 0 1440 180"><g mask="url(&quot;#SvgjsMask1184&quot;)" fill="none"><g mask="url(&quot;#SvgjsMask1185&quot;)"><path d="M623 175L693 105L721 105L791 175L889 175" stroke-width="2.33" stroke="rgba(227, 195, 217, 1)"></path><path d="M619.5 175 a3.5 3.5 0 1 0 7 0 a3.5 3.5 0 1 0 -7 0zM885.5 175 a3.5 3.5 0 1 0 7 0 a3.5 3.5 0 1 0 -7 0z" fill="rgba(227, 195, 217, 1)"></path><path d="M1155 77L1099 77L1015 161L1015 175" stroke-width="2.33" stroke="rgba(227, 195, 217, 1)"></path><path d="M1151.5 77 a3.5 3.5 0 1 0 7 0 a3.5 3.5 0 1 0 -7 0zM1011.5 175 a3.5 3.5 0 1 0 7 0 a3.5 3.5 0 1 0 -7 0z" fill="rgba(227, 195, 217, 1)"></path><path d="M273 119L161 7L7 7" stroke-width="2.33" stroke="rgba(227, 195, 217, 1)"></path><path d="M269.5 119 a3.5 3.5 0 1 0 7 0 a3.5 3.5 0 1 0 -7 0zM3.5 7 a3.5 3.5 0 1 0 7 0 a3.5 3.5 0 1 0 -7 0z" fill="rgba(227, 195, 217, 1)"></path><path d="M469 7L441 35L441 175" stroke-width="2.33" stroke="rgba(227, 195, 217, 1)"></path><path d="M465.5 7 a3.5 3.5 0 1 0 7 0 a3.5 3.5 0 1 0 -7 0zM437.5 175 a3.5 3.5 0 1 0 7 0 a3.5 3.5 0 1 0 -7 0z" fill="rgba(227, 195, 217, 1)"></path><path d="M259 35L259 91L343 175L385 175L427 133L427 91" stroke-width="2.33" stroke="rgba(227, 195, 217, 1)"></path><path d="M255.5 35 a3.5 3.5 0 1 0 7 0 a3.5 3.5 0 1 0 -7 0zM423.5 91 a3.5 3.5 0 1 0 7 0 a3.5 3.5 0 1 0 -7 0z" fill="rgba(227, 195, 217, 1)"></path><path d="M1225 77L1435 77" stroke-width="2.33" stroke="rgba(227, 195, 217, 1)"></path><path d="M1221.5 77 a3.5 3.5 0 1 0 7 0 a3.5 3.5 0 1 0 -7 0zM1431.5 77 a3.5 3.5 0 1 0 7 0 a3.5 3.5 0 1 0 -7 0z" fill="rgba(227, 195, 217, 1)"></path><path d="M1211 63L1267 7L1435 7" stroke-width="2.33" stroke="rgba(227, 195, 217, 1)"></path><path d="M1207.5 63 a3.5 3.5 0 1 0 7 0 a3.5 3.5 0 1 0 -7 0zM1431.5 7 a3.5 3.5 0 1 0 7 0 a3.5 3.5 0 1 0 -7 0z" fill="rgba(227, 195, 217, 1)"></path><path d="M511 21L497 7L483 7L455 35L455 175" stroke-width="2.33" stroke="rgba(227, 195, 217, 1)"></path><path d="M507.5 21 a3.5 3.5 0 1 0 7 0 a3.5 3.5 0 1 0 -7 0zM451.5 175 a3.5 3.5 0 1 0 7 0 a3.5 3.5 0 1 0 -7 0z" fill="rgba(227, 195, 217, 1)"></path><path d="M343 161L273 91L273 21L287 7L399 7" stroke-width="2.33" stroke="rgba(227, 195, 217, 1)"></path><path d="M339.5 161 a3.5 3.5 0 1 0 7 0 a3.5 3.5 0 1 0 -7 0zM395.5 7 a3.5 3.5 0 1 0 7 0 a3.5 3.5 0 1 0 -7 0z" fill="rgba(227, 195, 217, 1)"></path><path d="M399 147L343 147L287 91L287 21" stroke-width="2.33" stroke="rgba(227, 195, 217, 1)"></path><path d="M395.5 147 a3.5 3.5 0 1 0 7 0 a3.5 3.5 0 1 0 -7 0zM283.5 21 a3.5 3.5 0 1 0 7 0 a3.5 3.5 0 1 0 -7 0z" fill="rgba(227, 195, 217, 1)"></path><path d="M1211 105L1141 175L1043 175L1029 161" stroke-width="2.33" stroke="rgba(227, 195, 217, 1)"></path><path d="M1207.5 105 a3.5 3.5 0 1 0 7 0 a3.5 3.5 0 1 0 -7 0zM1025.5 161 a3.5 3.5 0 1 0 7 0 a3.5 3.5 0 1 0 -7 0z" fill="rgba(227, 195, 217, 1)"></path><path d="M889 35L861 7L847 7L819 35L819 105L777 147" stroke-width="2.33" stroke="rgba(227, 195, 217, 1)"></path><path d="M885.5 35 a3.5 3.5 0 1 0 7 0 a3.5 3.5 0 1 0 -7 0zM773.5 147 a3.5 3.5 0 1 0 7 0 a3.5 3.5 0 1 0 -7 0z" fill="rgba(227, 195, 217, 1)"></path><path d="M189 105L217 77" stroke-width="2.33" stroke="rgba(227, 195, 217, 1)"></path><path d="M185.5 105 a3.5 3.5 0 1 0 7 0 a3.5 3.5 0 1 0 -7 0zM213.5 77 a3.5 3.5 0 1 0 7 0 a3.5 3.5 0 1 0 -7 0z" fill="rgba(227, 195, 217, 1)"></path><path d="M21 161L35 175L49 175L91 133L287 133" stroke-width="2.33" stroke="rgba(227, 195, 217, 1)"></path><path d="M17.5 161 a3.5 3.5 0 1 0 7 0 a3.5 3.5 0 1 0 -7 0zM283.5 133 a3.5 3.5 0 1 0 7 0 a3.5 3.5 0 1 0 -7 0z" fill="rgba(227, 195, 217, 1)"></path><path d="M1127 119L1239 7L1253 7" stroke-width="2.33" stroke="rgba(227, 195, 217, 1)"></path><path d="M1123.5 119 a3.5 3.5 0 1 0 7 0 a3.5 3.5 0 1 0 -7 0zM1249.5 7 a3.5 3.5 0 1 0 7 0 a3.5 3.5 0 1 0 -7 0z" fill="rgba(227, 195, 217, 1)"></path><path d="M1211 175L1155 175" stroke-width="2.33" stroke="rgba(227, 195, 217, 1)"></path><path d="M1207.5 175 a3.5 3.5 0 1 0 7 0 a3.5 3.5 0 1 0 -7 0zM1151.5 175 a3.5 3.5 0 1 0 7 0 a3.5 3.5 0 1 0 -7 0z" fill="rgba(227, 195, 217, 1)"></path><path d="M1295 147L1295 161L1309 175L1435 175" stroke-width="2.33" stroke="rgba(227, 195, 217, 1)"></path><path d="M1291.5 147 a3.5 3.5 0 1 0 7 0 a3.5 3.5 0 1 0 -7 0zM1431.5 175 a3.5 3.5 0 1 0 7 0 a3.5 3.5 0 1 0 -7 0z" fill="rgba(227, 195, 217, 1)"></path><path d="M1225 91L1225 161L1239 175L1295 175" stroke-width="2.33" stroke="rgba(227, 195, 217, 1)"></path><path d="M1221.5 91 a3.5 3.5 0 1 0 7 0 a3.5 3.5 0 1 0 -7 0zM1291.5 175 a3.5 3.5 0 1 0 7 0 a3.5 3.5 0 1 0 -7 0z" fill="rgba(227, 195, 217, 1)"></path><path d="M105 175L63 175" stroke-width="2.33" stroke="rgba(227, 195, 217, 1)"></path><path d="M101.5 175 a3.5 3.5 0 1 0 7 0 a3.5 3.5 0 1 0 -7 0zM59.5 175 a3.5 3.5 0 1 0 7 0 a3.5 3.5 0 1 0 -7 0z" fill="rgba(227, 195, 217, 1)"></path><path d="M721 161L707 175L637 175" stroke-width="2.33" stroke="rgba(227, 195, 217, 1)"></path><path d="M717.5 161 a3.5 3.5 0 1 0 7 0 a3.5 3.5 0 1 0 -7 0zM633.5 175 a3.5 3.5 0 1 0 7 0 a3.5 3.5 0 1 0 -7 0z" fill="rgba(227, 195, 217, 1)"></path><path d="M553 119L665 119L749 35L805 35L819 21" stroke-width="2.33" stroke="rgba(227, 195, 217, 1)"></path><path d="M549.5 119 a3.5 3.5 0 1 0 7 0 a3.5 3.5 0 1 0 -7 0zM815.5 21 a3.5 3.5 0 1 0 7 0 a3.5 3.5 0 1 0 -7 0z" fill="rgba(227, 195, 217, 1)"></path><path d="M203 35L245 77" stroke-width="2.33" stroke="rgba(227, 195, 217, 1)"></path><path d="M199.5 35 a3.5 3.5 0 1 0 7 0 a3.5 3.5 0 1 0 -7 0zM241.5 77 a3.5 3.5 0 1 0 7 0 a3.5 3.5 0 1 0 -7 0z" fill="rgba(227, 195, 217, 1)"></path><path d="M49 105L49 161" stroke-width="2.33" stroke="rgba(227, 195, 217, 1)"></path><path d="M45.5 105 a3.5 3.5 0 1 0 7 0 a3.5 3.5 0 1 0 -7 0zM45.5 161 a3.5 3.5 0 1 0 7 0 a3.5 3.5 0 1 0 -7 0z" fill="rgba(227, 195, 217, 1)"></path><path d="M1281 119L1337 119L1365 91L1435 91" stroke-width="2.33" stroke="rgba(227, 195, 217, 1)"></path><path d="M1277.5 119 a3.5 3.5 0 1 0 7 0 a3.5 3.5 0 1 0 -7 0zM1431.5 91 a3.5 3.5 0 1 0 7 0 a3.5 3.5 0 1 0 -7 0z" fill="rgba(227, 195, 217, 1)"></path><path d="M693 161L707 147L749 147L777 175" stroke-width="2.33" stroke="rgba(227, 195, 217, 1)"></path><path d="M689.5 161 a3.5 3.5 0 1 0 7 0 a3.5 3.5 0 1 0 -7 0zM773.5 175 a3.5 3.5 0 1 0 7 0 a3.5 3.5 0 1 0 -7 0z" fill="rgba(227, 195, 217, 1)"></path><path d="M847 49L875 77L1085 77L1113 49" stroke-width="2.33" stroke="rgba(227, 195, 217, 1)"></path><path d="M843.5 49 a3.5 3.5 0 1 0 7 0 a3.5 3.5 0 1 0 -7 0zM1109.5 49 a3.5 3.5 0 1 0 7 0 a3.5 3.5 0 1 0 -7 0z" fill="rgba(227, 195, 217, 1)"></path><path d="M679 49L511 49L469 91L469 147" stroke-width="2.33" stroke="rgba(227, 195, 217, 1)"></path><path d="M675.5 49 a3.5 3.5 0 1 0 7 0 a3.5 3.5 0 1 0 -7 0zM465.5 147 a3.5 3.5 0 1 0 7 0 a3.5 3.5 0 1 0 -7 0z" fill="rgba(227, 195, 217, 1)"></path><path d="M1113 21L959 21L945 35L945 63" stroke-width="2.33" stroke="rgba(227, 195, 217, 1)"></path><path d="M1109.5 21 a3.5 3.5 0 1 0 7 0 a3.5 3.5 0 1 0 -7 0zM941.5 63 a3.5 3.5 0 1 0 7 0 a3.5 3.5 0 1 0 -7 0z" fill="rgba(227, 195, 217, 1)"></path><path d="M553 133L651 133" stroke-width="2.33" stroke="rgba(227, 195, 217, 1)"></path><path d="M549.5 133 a3.5 3.5 0 1 0 7 0 a3.5 3.5 0 1 0 -7 0zM647.5 133 a3.5 3.5 0 1 0 7 0 a3.5 3.5 0 1 0 -7 0z" fill="rgba(227, 195, 217, 1)"></path><path d="M147 175L119 147L91 147L77 161" stroke-width="2.33" stroke="rgba(227, 195, 217, 1)"></path><path d="M143.5 175 a3.5 3.5 0 1 0 7 0 a3.5 3.5 0 1 0 -7 0zM73.5 161 a3.5 3.5 0 1 0 7 0 a3.5 3.5 0 1 0 -7 0z" fill="rgba(227, 195, 217, 1)"></path><path d="M1015 119L819 119L791 147L791 161" stroke-width="2.33" stroke="rgba(227, 195, 217, 1)"></path><path d="M1011.5 119 a3.5 3.5 0 1 0 7 0 a3.5 3.5 0 1 0 -7 0zM787.5 161 a3.5 3.5 0 1 0 7 0 a3.5 3.5 0 1 0 -7 0z" fill="rgba(227, 195, 217, 1)"></path><path d="M1183 21L1197 7L1225 7" stroke-width="2.33" stroke="rgba(227, 195, 217, 1)"></path><path d="M1179.5 21 a3.5 3.5 0 1 0 7 0 a3.5 3.5 0 1 0 -7 0zM1221.5 7 a3.5 3.5 0 1 0 7 0 a3.5 3.5 0 1 0 -7 0z" fill="rgba(227, 195, 217, 1)"></path><path d="M1295 21L1253 63L1225 63" stroke-width="2.33" stroke="rgba(227, 195, 217, 1)"></path><path d="M1291.5 21 a3.5 3.5 0 1 0 7 0 a3.5 3.5 0 1 0 -7 0zM1221.5 63 a3.5 3.5 0 1 0 7 0 a3.5 3.5 0 1 0 -7 0z" fill="rgba(227, 195, 217, 1)"></path><path d="M1253 119L1253 91" stroke-width="2.33" stroke="rgba(227, 195, 217, 1)"></path><path d="M1249.5 119 a3.5 3.5 0 1 0 7 0 a3.5 3.5 0 1 0 -7 0zM1249.5 91 a3.5 3.5 0 1 0 7 0 a3.5 3.5 0 1 0 -7 0z" fill="rgba(227, 195, 217, 1)"></path><path d="M119 63L119 119" stroke-width="2.33" stroke="rgba(227, 195, 217, 1)"></path><path d="M115.5 63 a3.5 3.5 0 1 0 7 0 a3.5 3.5 0 1 0 -7 0zM115.5 119 a3.5 3.5 0 1 0 7 0 a3.5 3.5 0 1 0 -7 0z" fill="rgba(227, 195, 217, 1)"></path><path d="M357 35L343 21L301 21" stroke-width="2.33" stroke="rgba(227, 195, 217, 1)"></path><path d="M353.5 35 a3.5 3.5 0 1 0 7 0 a3.5 3.5 0 1 0 -7 0zM297.5 21 a3.5 3.5 0 1 0 7 0 a3.5 3.5 0 1 0 -7 0z" fill="rgba(227, 195, 217, 1)"></path><path d="M805 161L973 161L1001 133L1029 133L1071 91" stroke-width="2.33" stroke="rgba(227, 195, 217, 1)"></path><path d="M801.5 161 a3.5 3.5 0 1 0 7 0 a3.5 3.5 0 1 0 -7 0zM1067.5 91 a3.5 3.5 0 1 0 7 0 a3.5 3.5 0 1 0 -7 0z" fill="rgba(227, 195, 217, 1)"></path><path d="M987 63L1015 35L1029 35L1057 63L1085 63L1141 7L1183 7" stroke-width="2.33" stroke="rgba(227, 195, 217, 1)"></path><path d="M983.5 63 a3.5 3.5 0 1 0 7 0 a3.5 3.5 0 1 0 -7 0zM1179.5 7 a3.5 3.5 0 1 0 7 0 a3.5 3.5 0 1 0 -7 0z" fill="rgba(227, 195, 217, 1)"></path><path d="M665 105L679 91L679 63L735 7L833 7" stroke-width="2.33" stroke="rgba(227, 195, 217, 1)"></path><path d="M661.5 105 a3.5 3.5 0 1 0 7 0 a3.5 3.5 0 1 0 -7 0zM829.5 7 a3.5 3.5 0 1 0 7 0 a3.5 3.5 0 1 0 -7 0z" fill="rgba(227, 195, 217, 1)"></path><path d="M1421 21L1309 21L1267 63" stroke-width="2.33" stroke="rgba(227, 195, 217, 1)"></path><path d="M1417.5 21 a3.5 3.5 0 1 0 7 0 a3.5 3.5 0 1 0 -7 0zM1263.5 63 a3.5 3.5 0 1 0 7 0 a3.5 3.5 0 1 0 -7 0z" fill="rgba(227, 195, 217, 1)"></path><path d="M245 175L273 147L301 147L315 161L315 175" stroke-width="2.33" stroke="rgba(227, 195, 217, 1)"></path><path d="M241.5 175 a3.5 3.5 0 1 0 7 0 a3.5 3.5 0 1 0 -7 0zM311.5 175 a3.5 3.5 0 1 0 7 0 a3.5 3.5 0 1 0 -7 0z" fill="rgba(227, 195, 217, 1)"></path><path d="M581 91L567 105L525 105L469 161" stroke-width="2.33" stroke="rgba(227, 195, 217, 1)"></path><path d="M577.5 91 a3.5 3.5 0 1 0 7 0 a3.5 3.5 0 1 0 -7 0zM465.5 161 a3.5 3.5 0 1 0 7 0 a3.5 3.5 0 1 0 -7 0z" fill="rgba(227, 195, 217, 1)"></path><path d="M1155 147L1141 161L1043 161" stroke-width="2.33" stroke="rgba(227, 195, 217, 1)"></path><path d="M1151.5 147 a3.5 3.5 0 1 0 7 0 a3.5 3.5 0 1 0 -7 0zM1039.5 161 a3.5 3.5 0 1 0 7 0 a3.5 3.5 0 1 0 -7 0z" fill="rgba(227, 195, 217, 1)"></path><path d="M1379 119L1393 105L1407 105L1435 133L1435 161" stroke-width="2.33" stroke="rgba(227, 195, 217, 1)"></path><path d="M1375.5 119 a3.5 3.5 0 1 0 7 0 a3.5 3.5 0 1 0 -7 0zM1431.5 161 a3.5 3.5 0 1 0 7 0 a3.5 3.5 0 1 0 -7 0z" fill="rgba(227, 195, 217, 1)"></path><path d="M49 49L49 91L77 119L77 133L63 147" stroke-width="2.33" stroke="rgba(227, 195, 217, 1)"></path><path d="M45.5 49 a3.5 3.5 0 1 0 7 0 a3.5 3.5 0 1 0 -7 0zM59.5 147 a3.5 3.5 0 1 0 7 0 a3.5 3.5 0 1 0 -7 0z" fill="rgba(227, 195, 217, 1)"></path><path d="M707 21L693 35L609 35" stroke-width="2.33" stroke="rgba(227, 195, 217, 1)"></path><path d="M703.5 21 a3.5 3.5 0 1 0 7 0 a3.5 3.5 0 1 0 -7 0zM605.5 35 a3.5 3.5 0 1 0 7 0 a3.5 3.5 0 1 0 -7 0z" fill="rgba(227, 195, 217, 1)"></path><path d="M147 105L133 91L133 21" stroke-width="2.33" stroke="rgba(227, 195, 217, 1)"></path><path d="M143.5 105 a3.5 3.5 0 1 0 7 0 a3.5 3.5 0 1 0 -7 0zM129.5 21 a3.5 3.5 0 1 0 7 0 a3.5 3.5 0 1 0 -7 0z" fill="rgba(227, 195, 217, 1)"></path><path d="M161 175L133 147" stroke-width="2.33" stroke="rgba(227, 195, 217, 1)"></path><path d="M157.5 175 a3.5 3.5 0 1 0 7 0 a3.5 3.5 0 1 0 -7 0zM129.5 147 a3.5 3.5 0 1 0 7 0 a3.5 3.5 0 1 0 -7 0z" fill="rgba(227, 195, 217, 1)"></path><path d="M217 175L189 175L161 147L147 147" stroke-width="2.33" stroke="rgba(227, 195, 217, 1)"></path><path d="M213.5 175 a3.5 3.5 0 1 0 7 0 a3.5 3.5 0 1 0 -7 0zM143.5 147 a3.5 3.5 0 1 0 7 0 a3.5 3.5 0 1 0 -7 0z" fill="rgba(227, 195, 217, 1)"></path><path d="M1197 35L1127 35" stroke-width="2.33" stroke="rgba(227, 195, 217, 1)"></path><path d="M1193.5 35 a3.5 3.5 0 1 0 7 0 a3.5 3.5 0 1 0 -7 0zM1123.5 35 a3.5 3.5 0 1 0 7 0 a3.5 3.5 0 1 0 -7 0z" fill="rgba(227, 195, 217, 1)"></path><path d="M1379 35L1309 35L1281 63" stroke-width="2.33" stroke="rgba(227, 195, 217, 1)"></path><path d="M1375.5 35 a3.5 3.5 0 1 0 7 0 a3.5 3.5 0 1 0 -7 0zM1277.5 63 a3.5 3.5 0 1 0 7 0 a3.5 3.5 0 1 0 -7 0z" fill="rgba(227, 195, 217, 1)"></path><path d="M567 21L553 21L539 35L469 35" stroke-width="2.33" stroke="rgba(227, 195, 217, 1)"></path><path d="M563.5 21 a3.5 3.5 0 1 0 7 0 a3.5 3.5 0 1 0 -7 0zM465.5 35 a3.5 3.5 0 1 0 7 0 a3.5 3.5 0 1 0 -7 0z" fill="rgba(227, 195, 217, 1)"></path><path d="M245 7L175 7" stroke-width="2.33" stroke="rgba(227, 195, 217, 1)"></path><path d="M241.5 7 a3.5 3.5 0 1 0 7 0 a3.5 3.5 0 1 0 -7 0zM171.5 7 a3.5 3.5 0 1 0 7 0 a3.5 3.5 0 1 0 -7 0z" fill="rgba(227, 195, 217, 1)"></path><path d="M623 7L637 21L693 21L707 7L721 7" stroke-width="2.33" stroke="rgba(227, 195, 217, 1)"></path><path d="M619.5 7 a3.5 3.5 0 1 0 7 0 a3.5 3.5 0 1 0 -7 0zM717.5 7 a3.5 3.5 0 1 0 7 0 a3.5 3.5 0 1 0 -7 0z" fill="rgba(227, 195, 217, 1)"></path><path d="M35 49L35 21" stroke-width="2.33" stroke="rgba(227, 195, 217, 1)"></path><path d="M31.5 49 a3.5 3.5 0 1 0 7 0 a3.5 3.5 0 1 0 -7 0zM31.5 21 a3.5 3.5 0 1 0 7 0 a3.5 3.5 0 1 0 -7 0z" fill="rgba(227, 195, 217, 1)"></path><path d="M959 35L973 49L987 49L1001 35" stroke-width="2.33" stroke="rgba(227, 195, 217, 1)"></path><path d="M955.5 35 a3.5 3.5 0 1 0 7 0 a3.5 3.5 0 1 0 -7 0zM997.5 35 a3.5 3.5 0 1 0 7 0 a3.5 3.5 0 1 0 -7 0z" fill="rgba(227, 195, 217, 1)"></path><path d="M1323 49L1351 49L1365 63L1379 63L1393 49L1393 35" stroke-width="2.33" stroke="rgba(227, 195, 217, 1)"></path><path d="M1319.5 49 a3.5 3.5 0 1 0 7 0 a3.5 3.5 0 1 0 -7 0zM1389.5 35 a3.5 3.5 0 1 0 7 0 a3.5 3.5 0 1 0 -7 0z" fill="rgba(227, 195, 217, 1)"></path><path d="M735 35L707 63L693 63" stroke-width="2.33" stroke="rgba(227, 195, 217, 1)"></path><path d="M731.5 35 a3.5 3.5 0 1 0 7 0 a3.5 3.5 0 1 0 -7 0zM689.5 63 a3.5 3.5 0 1 0 7 0 a3.5 3.5 0 1 0 -7 0z" fill="rgba(227, 195, 217, 1)"></path><path d="M1393 147L1365 119L1351 119L1337 133L1337 161" stroke-width="2.33" stroke="rgba(227, 195, 217, 1)"></path><path d="M1389.5 147 a3.5 3.5 0 1 0 7 0 a3.5 3.5 0 1 0 -7 0zM1333.5 161 a3.5 3.5 0 1 0 7 0 a3.5 3.5 0 1 0 -7 0z" fill="rgba(227, 195, 217, 1)"></path><path d="M357 63L385 91L399 91L427 63L427 7" stroke-width="2.33" stroke="rgba(227, 195, 217, 1)"></path><path d="M353.5 63 a3.5 3.5 0 1 0 7 0 a3.5 3.5 0 1 0 -7 0zM423.5 7 a3.5 3.5 0 1 0 7 0 a3.5 3.5 0 1 0 -7 0z" fill="rgba(227, 195, 217, 1)"></path><path d="M413 35L413 63L399 77L385 77L343 35L301 35" stroke-width="2.33" stroke="rgba(227, 195, 217, 1)"></path><path d="M409.5 35 a3.5 3.5 0 1 0 7 0 a3.5 3.5 0 1 0 -7 0zM297.5 35 a3.5 3.5 0 1 0 7 0 a3.5 3.5 0 1 0 -7 0z" fill="rgba(227, 195, 217, 1)"></path><path d="M931 21L945 21L959 7L1099 7" stroke-width="2.33" stroke="rgba(227, 195, 217, 1)"></path><path d="M927.5 21 a3.5 3.5 0 1 0 7 0 a3.5 3.5 0 1 0 -7 0zM1095.5 7 a3.5 3.5 0 1 0 7 0 a3.5 3.5 0 1 0 -7 0z" fill="rgba(227, 195, 217, 1)"></path><path d="M315 49L301 63L301 91L343 133L413 133" stroke-width="2.33" stroke="rgba(227, 195, 217, 1)"></path><path d="M311.5 49 a3.5 3.5 0 1 0 7 0 a3.5 3.5 0 1 0 -7 0zM409.5 133 a3.5 3.5 0 1 0 7 0 a3.5 3.5 0 1 0 -7 0z" fill="rgba(227, 195, 217, 1)"></path><path d="M7 77L35 105L35 119L21 133L7 133" stroke-width="2.33" stroke="rgba(227, 195, 217, 1)"></path><path d="M3.5 77 a3.5 3.5 0 1 0 7 0 a3.5 3.5 0 1 0 -7 0zM3.5 133 a3.5 3.5 0 1 0 7 0 a3.5 3.5 0 1 0 -7 0z" fill="rgba(227, 195, 217, 1)"></path><path d="M833 49L847 63L847 77L875 105L1043 105L1057 91" stroke-width="2.33" stroke="rgba(227, 195, 217, 1)"></path><path d="M829.5 49 a3.5 3.5 0 1 0 7 0 a3.5 3.5 0 1 0 -7 0zM1053.5 91 a3.5 3.5 0 1 0 7 0 a3.5 3.5 0 1 0 -7 0z" fill="rgba(227, 195, 217, 1)"></path><path d="M77 77L77 21" stroke-width="2.33" stroke="rgba(227, 195, 217, 1)"></path><path d="M73.5 77 a3.5 3.5 0 1 0 7 0 a3.5 3.5 0 1 0 -7 0zM73.5 21 a3.5 3.5 0 1 0 7 0 a3.5 3.5 0 1 0 -7 0z" fill="rgba(227, 195, 217, 1)"></path><path d="M1113 119L1127 133L1169 133L1211 91L1211 77L1197 63" stroke-width="2.33" stroke="rgba(227, 195, 217, 1)"></path><path d="M1109.5 119 a3.5 3.5 0 1 0 7 0 a3.5 3.5 0 1 0 -7 0zM1193.5 63 a3.5 3.5 0 1 0 7 0 a3.5 3.5 0 1 0 -7 0z" fill="rgba(227, 195, 217, 1)"></path><path d="M763 63L777 49L805 49" stroke-width="2.33" stroke="rgba(227, 195, 217, 1)"></path><path d="M759.5 63 a3.5 3.5 0 1 0 7 0 a3.5 3.5 0 1 0 -7 0zM801.5 49 a3.5 3.5 0 1 0 7 0 a3.5 3.5 0 1 0 -7 0z" fill="rgba(227, 195, 217, 1)"></path><path d="M917 91L1043 91" stroke-width="2.33" stroke="rgba(227, 195, 217, 1)"></path><path d="M913.5 91 a3.5 3.5 0 1 0 7 0 a3.5 3.5 0 1 0 -7 0zM1039.5 91 a3.5 3.5 0 1 0 7 0 a3.5 3.5 0 1 0 -7 0z" fill="rgba(227, 195, 217, 1)"></path><path d="M147 21L203 77" stroke-width="2.33" stroke="rgba(227, 195, 217, 1)"></path><path d="M143.5 21 a3.5 3.5 0 1 0 7 0 a3.5 3.5 0 1 0 -7 0zM199.5 77 a3.5 3.5 0 1 0 7 0 a3.5 3.5 0 1 0 -7 0z" fill="rgba(227, 195, 217, 1)"></path><path d="M553 147L637 147" stroke-width="2.33" stroke="rgba(227, 195, 217, 1)"></path><path d="M549.5 147 a3.5 3.5 0 1 0 7 0 a3.5 3.5 0 1 0 -7 0zM633.5 147 a3.5 3.5 0 1 0 7 0 a3.5 3.5 0 1 0 -7 0z" fill="rgba(227, 195, 217, 1)"></path><path d="M847 147L973 147L987 133" stroke-width="2.33" stroke="rgba(227, 195, 217, 1)"></path><path d="M843.5 147 a3.5 3.5 0 1 0 7 0 a3.5 3.5 0 1 0 -7 0zM983.5 133 a3.5 3.5 0 1 0 7 0 a3.5 3.5 0 1 0 -7 0z" fill="rgba(227, 195, 217, 1)"></path><path d="M987 175L1015 147" stroke-width="2.33" stroke="rgba(227, 195, 217, 1)"></path><path d="M983.5 175 a3.5 3.5 0 1 0 7 0 a3.5 3.5 0 1 0 -7 0zM1011.5 147 a3.5 3.5 0 1 0 7 0 a3.5 3.5 0 1 0 -7 0z" fill="rgba(227, 195, 217, 1)"></path><path d="M371 119L385 105L413 105" stroke-width="2.33" stroke="rgba(227, 195, 217, 1)"></path><path d="M367.5 119 a3.5 3.5 0 1 0 7 0 a3.5 3.5 0 1 0 -7 0zM409.5 105 a3.5 3.5 0 1 0 7 0 a3.5 3.5 0 1 0 -7 0z" fill="rgba(227, 195, 217, 1)"></path><path d="M329 105L315 91L315 63L329 49L343 49" stroke-width="2.33" stroke="rgba(227, 195, 217, 1)"></path><path d="M325.5 105 a3.5 3.5 0 1 0 7 0 a3.5 3.5 0 1 0 -7 0zM339.5 49 a3.5 3.5 0 1 0 7 0 a3.5 3.5 0 1 0 -7 0z" fill="rgba(227, 195, 217, 1)"></path><path d="M1099 105L1057 147L1043 147" stroke-width="2.33" stroke="rgba(227, 195, 217, 1)"></path><path d="M1095.5 105 a3.5 3.5 0 1 0 7 0 a3.5 3.5 0 1 0 -7 0zM1039.5 147 a3.5 3.5 0 1 0 7 0 a3.5 3.5 0 1 0 -7 0z" fill="rgba(227, 195, 217, 1)"></path><path d="M735 63L749 49L763 49" stroke-width="2.33" stroke="rgba(227, 195, 217, 1)"></path><path d="M731.5 63 a3.5 3.5 0 1 0 7 0 a3.5 3.5 0 1 0 -7 0zM759.5 49 a3.5 3.5 0 1 0 7 0 a3.5 3.5 0 1 0 -7 0z" fill="rgba(227, 195, 217, 1)"></path><path d="M623 91L651 63L665 63" stroke-width="2.33" stroke="rgba(227, 195, 217, 1)"></path><path d="M619.5 91 a3.5 3.5 0 1 0 7 0 a3.5 3.5 0 1 0 -7 0zM661.5 63 a3.5 3.5 0 1 0 7 0 a3.5 3.5 0 1 0 -7 0z" fill="rgba(227, 195, 217, 1)"></path><path d="M511 91L511 63" stroke-width="2.33" stroke="rgba(227, 195, 217, 1)"></path><path d="M507.5 91 a3.5 3.5 0 1 0 7 0 a3.5 3.5 0 1 0 -7 0zM507.5 63 a3.5 3.5 0 1 0 7 0 a3.5 3.5 0 1 0 -7 0z" fill="rgba(227, 195, 217, 1)"></path><path d="M749 119L721 91L721 77" stroke-width="2.33" stroke="rgba(227, 195, 217, 1)"></path><path d="M745.5 119 a3.5 3.5 0 1 0 7 0 a3.5 3.5 0 1 0 -7 0zM717.5 77 a3.5 3.5 0 1 0 7 0 a3.5 3.5 0 1 0 -7 0z" fill="rgba(227, 195, 217, 1)"></path><path d="M665 161L679 161L721 119" stroke-width="2.33" stroke="rgba(227, 195, 217, 1)"></path><path d="M661.5 161 a3.5 3.5 0 1 0 7 0 a3.5 3.5 0 1 0 -7 0zM717.5 119 a3.5 3.5 0 1 0 7 0 a3.5 3.5 0 1 0 -7 0z" fill="rgba(227, 195, 217, 1)"></path><path d="M847 105L847 91L833 77L833 63" stroke-width="2.33" stroke="rgba(227, 195, 217, 1)"></path><path d="M843.5 105 a3.5 3.5 0 1 0 7 0 a3.5 3.5 0 1 0 -7 0zM829.5 63 a3.5 3.5 0 1 0 7 0 a3.5 3.5 0 1 0 -7 0z" fill="rgba(227, 195, 217, 1)"></path><path d="M945 175L903 175" stroke-width="2.33" stroke="rgba(227, 195, 217, 1)"></path><path d="M941.5 175 a3.5 3.5 0 1 0 7 0 a3.5 3.5 0 1 0 -7 0zM899.5 175 a3.5 3.5 0 1 0 7 0 a3.5 3.5 0 1 0 -7 0z" fill="rgba(227, 195, 217, 1)"></path><path d="M581 161L595 175L609 175L623 161" stroke-width="2.33" stroke="rgba(227, 195, 217, 1)"></path><path d="M577.5 161 a3.5 3.5 0 1 0 7 0 a3.5 3.5 0 1 0 -7 0zM619.5 161 a3.5 3.5 0 1 0 7 0 a3.5 3.5 0 1 0 -7 0z" fill="rgba(227, 195, 217, 1)"></path><path d="M1421 161L1393 133L1393 119" stroke-width="2.33" stroke="rgba(227, 195, 217, 1)"></path><path d="M1417.5 161 a3.5 3.5 0 1 0 7 0 a3.5 3.5 0 1 0 -7 0zM1389.5 119 a3.5 3.5 0 1 0 7 0 a3.5 3.5 0 1 0 -7 0z" fill="rgba(227, 195, 217, 1)"></path><path d="M105 77L91 77L77 91L77 105" stroke-width="2.33" stroke="rgba(227, 195, 217, 1)"></path><path d="M101.5 77 a3.5 3.5 0 1 0 7 0 a3.5 3.5 0 1 0 -7 0zM73.5 105 a3.5 3.5 0 1 0 7 0 a3.5 3.5 0 1 0 -7 0z" fill="rgba(227, 195, 217, 1)"></path><path d="M147 35L147 91L175 119L203 119" stroke-width="2.33" stroke="rgba(227, 195, 217, 1)"></path><path d="M143.5 35 a3.5 3.5 0 1 0 7 0 a3.5 3.5 0 1 0 -7 0zM199.5 119 a3.5 3.5 0 1 0 7 0 a3.5 3.5 0 1 0 -7 0z" fill="rgba(227, 195, 217, 1)"></path><path d="M245 63L203 21L189 21" stroke-width="2.33" stroke="rgba(227, 195, 217, 1)"></path><path d="M241.5 63 a3.5 3.5 0 1 0 7 0 a3.5 3.5 0 1 0 -7 0zM185.5 21 a3.5 3.5 0 1 0 7 0 a3.5 3.5 0 1 0 -7 0z" fill="rgba(227, 195, 217, 1)"></path><path d="M595 105L609 91L609 63" stroke-width="2.33" stroke="rgba(227, 195, 217, 1)"></path><path d="M591.5 105 a3.5 3.5 0 1 0 7 0 a3.5 3.5 0 1 0 -7 0zM605.5 63 a3.5 3.5 0 1 0 7 0 a3.5 3.5 0 1 0 -7 0z" fill="rgba(227, 195, 217, 1)"></path><path d="M161 63L175 63L189 77L189 91L175 105" stroke-width="2.33" stroke="rgba(227, 195, 217, 1)"></path><path d="M157.5 63 a3.5 3.5 0 1 0 7 0 a3.5 3.5 0 1 0 -7 0zM171.5 105 a3.5 3.5 0 1 0 7 0 a3.5 3.5 0 1 0 -7 0z" fill="rgba(227, 195, 217, 1)"></path><path d="M1169 161L1211 119" stroke-width="2.33" stroke="rgba(227, 195, 217, 1)"></path><path d="M1165.5 161 a3.5 3.5 0 1 0 7 0 a3.5 3.5 0 1 0 -7 0zM1207.5 119 a3.5 3.5 0 1 0 7 0 a3.5 3.5 0 1 0 -7 0z" fill="rgba(227, 195, 217, 1)"></path><path d="M1211 133L1183 161" stroke-width="2.33" stroke="rgba(227, 195, 217, 1)"></path><path d="M1207.5 133 a3.5 3.5 0 1 0 7 0 a3.5 3.5 0 1 0 -7 0zM1179.5 161 a3.5 3.5 0 1 0 7 0 a3.5 3.5 0 1 0 -7 0z" fill="rgba(227, 195, 217, 1)"></path><path d="M539 91L525 77L525 63" stroke-width="2.33" stroke="rgba(227, 195, 217, 1)"></path><path d="M535.5 91 a3.5 3.5 0 1 0 7 0 a3.5 3.5 0 1 0 -7 0zM521.5 63 a3.5 3.5 0 1 0 7 0 a3.5 3.5 0 1 0 -7 0z" fill="rgba(227, 195, 217, 1)"></path><path d="M1183 91L1169 91L1141 119" stroke-width="2.33" stroke="rgba(227, 195, 217, 1)"></path><path d="M1179.5 91 a3.5 3.5 0 1 0 7 0 a3.5 3.5 0 1 0 -7 0zM1137.5 119 a3.5 3.5 0 1 0 7 0 a3.5 3.5 0 1 0 -7 0z" fill="rgba(227, 195, 217, 1)"></path><path d="M805 77L763 77L749 63" stroke-width="2.33" stroke="rgba(227, 195, 217, 1)"></path><path d="M801.5 77 a3.5 3.5 0 1 0 7 0 a3.5 3.5 0 1 0 -7 0zM745.5 63 a3.5 3.5 0 1 0 7 0 a3.5 3.5 0 1 0 -7 0z" fill="rgba(227, 195, 217, 1)"></path><path d="M1253 49L1281 21" stroke-width="2.33" stroke="rgba(227, 195, 217, 1)"></path><path d="M1249.5 49 a3.5 3.5 0 1 0 7 0 a3.5 3.5 0 1 0 -7 0zM1277.5 21 a3.5 3.5 0 1 0 7 0 a3.5 3.5 0 1 0 -7 0z" fill="rgba(227, 195, 217, 1)"></path><path d="M35 77L21 77L7 63L7 21" stroke-width="2.33" stroke="rgba(227, 195, 217, 1)"></path><path d="M31.5 77 a3.5 3.5 0 1 0 7 0 a3.5 3.5 0 1 0 -7 0zM3.5 21 a3.5 3.5 0 1 0 7 0 a3.5 3.5 0 1 0 -7 0z" fill="rgba(227, 195, 217, 1)"></path><path d="M525 175L497 175L483 161" stroke-width="2.33" stroke="rgba(227, 195, 217, 1)"></path><path d="M521.5 175 a3.5 3.5 0 1 0 7 0 a3.5 3.5 0 1 0 -7 0zM479.5 161 a3.5 3.5 0 1 0 7 0 a3.5 3.5 0 1 0 -7 0z" fill="rgba(227, 195, 217, 1)"></path><path d="M749 21L777 21" stroke-width="2.33" stroke="rgba(227, 195, 217, 1)"></path><path d="M745.5 21 a3.5 3.5 0 1 0 7 0 a3.5 3.5 0 1 0 -7 0zM773.5 21 a3.5 3.5 0 1 0 7 0 a3.5 3.5 0 1 0 -7 0z" fill="rgba(227, 195, 217, 1)"></path><path d="M777 105L749 77L735 77" stroke-width="2.33" stroke="rgba(227, 195, 217, 1)"></path><path d="M773.5 105 a3.5 3.5 0 1 0 7 0 a3.5 3.5 0 1 0 -7 0zM731.5 77 a3.5 3.5 0 1 0 7 0 a3.5 3.5 0 1 0 -7 0z" fill="rgba(227, 195, 217, 1)"></path><path d="M1015 49L1029 63L1043 63" stroke-width="2.33" stroke="rgba(227, 195, 217, 1)"></path><path d="M1011.5 49 a3.5 3.5 0 1 0 7 0 a3.5 3.5 0 1 0 -7 0zM1039.5 63 a3.5 3.5 0 1 0 7 0 a3.5 3.5 0 1 0 -7 0z" fill="rgba(227, 195, 217, 1)"></path><path d="M889 49L861 21L847 21L833 35" stroke-width="2.33" stroke="rgba(227, 195, 217, 1)"></path><path d="M885.5 49 a3.5 3.5 0 1 0 7 0 a3.5 3.5 0 1 0 -7 0zM829.5 35 a3.5 3.5 0 1 0 7 0 a3.5 3.5 0 1 0 -7 0z" fill="rgba(227, 195, 217, 1)"></path><path d="M917 35L917 7" stroke-width="2.33" stroke="rgba(227, 195, 217, 1)"></path><path d="M913.5 35 a3.5 3.5 0 1 0 7 0 a3.5 3.5 0 1 0 -7 0zM913.5 7 a3.5 3.5 0 1 0 7 0 a3.5 3.5 0 1 0 -7 0z" fill="rgba(227, 195, 217, 1)"></path><path d="M1267 119L1267 91" stroke-width="2.33" stroke="rgba(227, 195, 217, 1)"></path><path d="M1263.5 119 a3.5 3.5 0 1 0 7 0 a3.5 3.5 0 1 0 -7 0zM1263.5 91 a3.5 3.5 0 1 0 7 0 a3.5 3.5 0 1 0 -7 0z" fill="rgba(227, 195, 217, 1)"></path><path d="M1099 35L1043 35" stroke-width="2.33" stroke="rgba(227, 195, 217, 1)"></path><path d="M1095.5 35 a3.5 3.5 0 1 0 7 0 a3.5 3.5 0 1 0 -7 0zM1039.5 35 a3.5 3.5 0 1 0 7 0 a3.5 3.5 0 1 0 -7 0z" fill="rgba(227, 195, 217, 1)"></path><path d="M259 7L231 35" stroke-width="2.33" stroke="rgba(227, 195, 217, 1)"></path><path d="M255.5 7 a3.5 3.5 0 1 0 7 0 a3.5 3.5 0 1 0 -7 0zM227.5 35 a3.5 3.5 0 1 0 7 0 a3.5 3.5 0 1 0 -7 0z" fill="rgba(227, 195, 217, 1)"></path><path d="M539 21L553 7L609 7" stroke-width="2.33" stroke="rgba(227, 195, 217, 1)"></path><path d="M535.5 21 a3.5 3.5 0 1 0 7 0 a3.5 3.5 0 1 0 -7 0zM605.5 7 a3.5 3.5 0 1 0 7 0 a3.5 3.5 0 1 0 -7 0z" fill="rgba(227, 195, 217, 1)"></path><path d="M651 77L623 105L609 105" stroke-width="2.33" stroke="rgba(227, 195, 217, 1)"></path><path d="M647.5 77 a3.5 3.5 0 1 0 7 0 a3.5 3.5 0 1 0 -7 0zM605.5 105 a3.5 3.5 0 1 0 7 0 a3.5 3.5 0 1 0 -7 0z" fill="rgba(227, 195, 217, 1)"></path><path d="M1239 133L1239 91" stroke-width="2.33" stroke="rgba(227, 195, 217, 1)"></path><path d="M1235.5 133 a3.5 3.5 0 1 0 7 0 a3.5 3.5 0 1 0 -7 0zM1235.5 91 a3.5 3.5 0 1 0 7 0 a3.5 3.5 0 1 0 -7 0z" fill="rgba(227, 195, 217, 1)"></path><path d="M35 63L21 49L21 21" stroke-width="2.33" stroke="rgba(227, 195, 217, 1)"></path><path d="M31.5 63 a3.5 3.5 0 1 0 7 0 a3.5 3.5 0 1 0 -7 0zM17.5 21 a3.5 3.5 0 1 0 7 0 a3.5 3.5 0 1 0 -7 0z" fill="rgba(227, 195, 217, 1)"></path><path d="M903 35L889 21L889 7" stroke-width="2.33" stroke="rgba(227, 195, 217, 1)"></path><path d="M899.5 35 a3.5 3.5 0 1 0 7 0 a3.5 3.5 0 1 0 -7 0zM885.5 7 a3.5 3.5 0 1 0 7 0 a3.5 3.5 0 1 0 -7 0z" fill="rgba(227, 195, 217, 1)"></path><path d="M693 119L665 147" stroke-width="2.33" stroke="rgba(227, 195, 217, 1)"></path><path d="M689.5 119 a3.5 3.5 0 1 0 7 0 a3.5 3.5 0 1 0 -7 0zM661.5 147 a3.5 3.5 0 1 0 7 0 a3.5 3.5 0 1 0 -7 0z" fill="rgba(227, 195, 217, 1)"></path><path d="M1323 133L1323 161" stroke-width="2.33" stroke="rgba(227, 195, 217, 1)"></path><path d="M1319.5 133 a3.5 3.5 0 1 0 7 0 a3.5 3.5 0 1 0 -7 0zM1319.5 161 a3.5 3.5 0 1 0 7 0 a3.5 3.5 0 1 0 -7 0z" fill="rgba(227, 195, 217, 1)"></path><path d="M217 105L231 119L245 119" stroke-width="2.33" stroke="rgba(227, 195, 217, 1)"></path><path d="M213.5 105 a3.5 3.5 0 1 0 7 0 a3.5 3.5 0 1 0 -7 0zM241.5 119 a3.5 3.5 0 1 0 7 0 a3.5 3.5 0 1 0 -7 0z" fill="rgba(227, 195, 217, 1)"></path><path d="M567 91L581 77L581 63" stroke-width="2.33" stroke="rgba(227, 195, 217, 1)"></path><path d="M563.5 91 a3.5 3.5 0 1 0 7 0 a3.5 3.5 0 1 0 -7 0zM577.5 63 a3.5 3.5 0 1 0 7 0 a3.5 3.5 0 1 0 -7 0z" fill="rgba(227, 195, 217, 1)"></path><path d="M35 133L35 161" stroke-width="2.33" stroke="rgba(227, 195, 217, 1)"></path><path d="M31.5 133 a3.5 3.5 0 1 0 7 0 a3.5 3.5 0 1 0 -7 0zM31.5 161 a3.5 3.5 0 1 0 7 0 a3.5 3.5 0 1 0 -7 0z" fill="rgba(227, 195, 217, 1)"></path><path d="M1057 49L1085 49" stroke-width="2.33" stroke="rgba(227, 195, 217, 1)"></path><path d="M1053.5 49 a3.5 3.5 0 1 0 7 0 a3.5 3.5 0 1 0 -7 0zM1081.5 49 a3.5 3.5 0 1 0 7 0 a3.5 3.5 0 1 0 -7 0z" fill="rgba(227, 195, 217, 1)"></path><path d="M539 147L539 175" stroke-width="2.33" stroke="rgba(227, 195, 217, 1)"></path><path d="M535.5 147 a3.5 3.5 0 1 0 7 0 a3.5 3.5 0 1 0 -7 0zM535.5 175 a3.5 3.5 0 1 0 7 0 a3.5 3.5 0 1 0 -7 0z" fill="rgba(227, 195, 217, 1)"></path><path d="M469 63L483 63L497 49" stroke-width="2.33" stroke="rgba(227, 195, 217, 1)"></path><path d="M465.5 63 a3.5 3.5 0 1 0 7 0 a3.5 3.5 0 1 0 -7 0zM493.5 49 a3.5 3.5 0 1 0 7 0 a3.5 3.5 0 1 0 -7 0z" fill="rgba(227, 195, 217, 1)"></path><path d="M889 63L903 49L917 49L931 63" stroke-width="2.33" stroke="rgba(227, 195, 217, 1)"></path><path d="M885.5 63 a3.5 3.5 0 1 0 7 0 a3.5 3.5 0 1 0 -7 0zM927.5 63 a3.5 3.5 0 1 0 7 0 a3.5 3.5 0 1 0 -7 0z" fill="rgba(227, 195, 217, 1)"></path><path d="M357 77L371 91L371 105L357 119L343 119" stroke-width="2.33" stroke="rgba(227, 195, 217, 1)"></path><path d="M353.5 77 a3.5 3.5 0 1 0 7 0 a3.5 3.5 0 1 0 -7 0zM339.5 119 a3.5 3.5 0 1 0 7 0 a3.5 3.5 0 1 0 -7 0z" fill="rgba(227, 195, 217, 1)"></path><path d="M497 147L511 161L525 161" stroke-width="2.33" stroke="rgba(227, 195, 217, 1)"></path><path d="M493.5 147 a3.5 3.5 0 1 0 7 0 a3.5 3.5 0 1 0 -7 0zM521.5 161 a3.5 3.5 0 1 0 7 0 a3.5 3.5 0 1 0 -7 0z" fill="rgba(227, 195, 217, 1)"></path><path d="M217 147L203 161L189 161L175 147" stroke-width="2.33" stroke="rgba(227, 195, 217, 1)"></path><path d="M213.5 147 a3.5 3.5 0 1 0 7 0 a3.5 3.5 0 1 0 -7 0zM171.5 147 a3.5 3.5 0 1 0 7 0 a3.5 3.5 0 1 0 -7 0z" fill="rgba(227, 195, 217, 1)"></path><path d="M497 105L497 77" stroke-width="2.33" stroke="rgba(227, 195, 217, 1)"></path><path d="M493.5 105 a3.5 3.5 0 1 0 7 0 a3.5 3.5 0 1 0 -7 0zM493.5 77 a3.5 3.5 0 1 0 7 0 a3.5 3.5 0 1 0 -7 0z" fill="rgba(227, 195, 217, 1)"></path><path d="M385 119L413 119" stroke-width="2.33" stroke="rgba(227, 195, 217, 1)"></path><path d="M381.5 119 a3.5 3.5 0 1 0 7 0 a3.5 3.5 0 1 0 -7 0zM409.5 119 a3.5 3.5 0 1 0 7 0 a3.5 3.5 0 1 0 -7 0z" fill="rgba(227, 195, 217, 1)"></path><path d="M119 21L119 49L105 63L91 63" stroke-width="2.33" stroke="rgba(227, 195, 217, 1)"></path><path d="M115.5 21 a3.5 3.5 0 1 0 7 0 a3.5 3.5 0 1 0 -7 0zM87.5 63 a3.5 3.5 0 1 0 7 0 a3.5 3.5 0 1 0 -7 0z" fill="rgba(227, 195, 217, 1)"></path><path d="M819 147L833 133L903 133" stroke-width="2.33" stroke="rgba(227, 195, 217, 1)"></path><path d="M815.5 147 a3.5 3.5 0 1 0 7 0 a3.5 3.5 0 1 0 -7 0zM899.5 133 a3.5 3.5 0 1 0 7 0 a3.5 3.5 0 1 0 -7 0z" fill="rgba(227, 195, 217, 1)"></path><path d="M595 91L595 63" stroke-width="2.33" stroke="rgba(227, 195, 217, 1)"></path><path d="M591.5 91 a3.5 3.5 0 1 0 7 0 a3.5 3.5 0 1 0 -7 0zM591.5 63 a3.5 3.5 0 1 0 7 0 a3.5 3.5 0 1 0 -7 0z" fill="rgba(227, 195, 217, 1)"></path><path d="M665 77L665 91L651 105" stroke-width="2.33" stroke="rgba(227, 195, 217, 1)"></path><path d="M661.5 77 a3.5 3.5 0 1 0 7 0 a3.5 3.5 0 1 0 -7 0zM647.5 105 a3.5 3.5 0 1 0 7 0 a3.5 3.5 0 1 0 -7 0z" fill="rgba(227, 195, 217, 1)"></path><path d="M1267 133L1267 161" stroke-width="2.33" stroke="rgba(227, 195, 217, 1)"></path><path d="M1263.5 133 a3.5 3.5 0 1 0 7 0 a3.5 3.5 0 1 0 -7 0zM1263.5 161 a3.5 3.5 0 1 0 7 0 a3.5 3.5 0 1 0 -7 0z" fill="rgba(227, 195, 217, 1)"></path><path d="M329 91L357 91" stroke-width="2.33" stroke="rgba(227, 195, 217, 1)"></path><path d="M325.5 91 a3.5 3.5 0 1 0 7 0 a3.5 3.5 0 1 0 -7 0zM353.5 91 a3.5 3.5 0 1 0 7 0 a3.5 3.5 0 1 0 -7 0z" fill="rgba(227, 195, 217, 1)"></path><path d="M357 21L413 21" stroke-width="2.33" stroke="rgba(227, 195, 217, 1)"></path><path d="M353.5 21 a3.5 3.5 0 1 0 7 0 a3.5 3.5 0 1 0 -7 0zM409.5 21 a3.5 3.5 0 1 0 7 0 a3.5 3.5 0 1 0 -7 0z" fill="rgba(227, 195, 217, 1)"></path><path d="M63 63L63 91" stroke-width="2.33" stroke="rgba(227, 195, 217, 1)"></path><path d="M59.5 63 a3.5 3.5 0 1 0 7 0 a3.5 3.5 0 1 0 -7 0zM59.5 91 a3.5 3.5 0 1 0 7 0 a3.5 3.5 0 1 0 -7 0z" fill="rgba(227, 195, 217, 1)"></path><path d="M693 7L651 7" stroke-width="2.33" stroke="rgba(227, 195, 217, 1)"></path><path d="M689.5 7 a3.5 3.5 0 1 0 7 0 a3.5 3.5 0 1 0 -7 0zM647.5 7 a3.5 3.5 0 1 0 7 0 a3.5 3.5 0 1 0 -7 0z" fill="rgba(227, 195, 217, 1)"></path><path d="M763 105L749 91L735 91" stroke-width="2.33" stroke="rgba(227, 195, 217, 1)"></path><path d="M759.5 105 a3.5 3.5 0 1 0 7 0 a3.5 3.5 0 1 0 -7 0zM731.5 91 a3.5 3.5 0 1 0 7 0 a3.5 3.5 0 1 0 -7 0z" fill="rgba(227, 195, 217, 1)"></path><path d="M7 175L7 147" stroke-width="2.33" stroke="rgba(227, 195, 217, 1)"></path><path d="M3.5 175 a3.5 3.5 0 1 0 7 0 a3.5 3.5 0 1 0 -7 0zM3.5 147 a3.5 3.5 0 1 0 7 0 a3.5 3.5 0 1 0 -7 0z" fill="rgba(227, 195, 217, 1)"></path><path d="M63 49L63 21" stroke-width="2.33" stroke="rgba(227, 195, 217, 1)"></path><path d="M59.5 49 a3.5 3.5 0 1 0 7 0 a3.5 3.5 0 1 0 -7 0zM59.5 21 a3.5 3.5 0 1 0 7 0 a3.5 3.5 0 1 0 -7 0z" fill="rgba(227, 195, 217, 1)"></path><path d="M245 147L245 161L231 175" stroke-width="2.33" stroke="rgba(227, 195, 217, 1)"></path><path d="M241.5 147 a3.5 3.5 0 1 0 7 0 a3.5 3.5 0 1 0 -7 0zM227.5 175 a3.5 3.5 0 1 0 7 0 a3.5 3.5 0 1 0 -7 0z" fill="rgba(227, 195, 217, 1)"></path><path d="M875 63L875 49L861 35" stroke-width="2.33" stroke="rgba(227, 195, 217, 1)"></path><path d="M871.5 63 a3.5 3.5 0 1 0 7 0 a3.5 3.5 0 1 0 -7 0zM857.5 35 a3.5 3.5 0 1 0 7 0 a3.5 3.5 0 1 0 -7 0z" fill="rgba(227, 195, 217, 1)"></path><path d="M287 161L273 161L259 175" stroke-width="2.33" stroke="rgba(227, 195, 217, 1)"></path><path d="M283.5 161 a3.5 3.5 0 1 0 7 0 a3.5 3.5 0 1 0 -7 0zM255.5 175 a3.5 3.5 0 1 0 7 0 a3.5 3.5 0 1 0 -7 0z" fill="rgba(227, 195, 217, 1)"></path><path d="M1155 49L1141 63L1113 63" stroke-width="2.33" stroke="rgba(227, 195, 217, 1)"></path><path d="M1151.5 49 a3.5 3.5 0 1 0 7 0 a3.5 3.5 0 1 0 -7 0zM1109.5 63 a3.5 3.5 0 1 0 7 0 a3.5 3.5 0 1 0 -7 0z" fill="rgba(227, 195, 217, 1)"></path></g></g><defs><mask id="SvgjsMask1184"><rect width="1440" height="180" fill="#ffffff"></rect></mask><mask id="SvgjsMask1185"><rect width="1440" height="180" fill="white"></rect><path d="M621.25 175 a1.75 1.75 0 1 0 3.5 0 a1.75 1.75 0 1 0 -3.5 0zM887.25 175 a1.75 1.75 0 1 0 3.5 0 a1.75 1.75 0 1 0 -3.5 0z" fill="black"></path><path d="M1153.25 77 a1.75 1.75 0 1 0 3.5 0 a1.75 1.75 0 1 0 -3.5 0zM1013.25 175 a1.75 1.75 0 1 0 3.5 0 a1.75 1.75 0 1 0 -3.5 0z" fill="black"></path><path d="M271.25 119 a1.75 1.75 0 1 0 3.5 0 a1.75 1.75 0 1 0 -3.5 0zM5.25 7 a1.75 1.75 0 1 0 3.5 0 a1.75 1.75 0 1 0 -3.5 0z" fill="black"></path><path d="M467.25 7 a1.75 1.75 0 1 0 3.5 0 a1.75 1.75 0 1 0 -3.5 0zM439.25 175 a1.75 1.75 0 1 0 3.5 0 a1.75 1.75 0 1 0 -3.5 0z" fill="black"></path><path d="M257.25 35 a1.75 1.75 0 1 0 3.5 0 a1.75 1.75 0 1 0 -3.5 0zM425.25 91 a1.75 1.75 0 1 0 3.5 0 a1.75 1.75 0 1 0 -3.5 0z" fill="black"></path><path d="M1223.25 77 a1.75 1.75 0 1 0 3.5 0 a1.75 1.75 0 1 0 -3.5 0zM1433.25 77 a1.75 1.75 0 1 0 3.5 0 a1.75 1.75 0 1 0 -3.5 0z" fill="black"></path><path d="M1209.25 63 a1.75 1.75 0 1 0 3.5 0 a1.75 1.75 0 1 0 -3.5 0zM1433.25 7 a1.75 1.75 0 1 0 3.5 0 a1.75 1.75 0 1 0 -3.5 0z" fill="black"></path><path d="M509.25 21 a1.75 1.75 0 1 0 3.5 0 a1.75 1.75 0 1 0 -3.5 0zM453.25 175 a1.75 1.75 0 1 0 3.5 0 a1.75 1.75 0 1 0 -3.5 0z" fill="black"></path><path d="M341.25 161 a1.75 1.75 0 1 0 3.5 0 a1.75 1.75 0 1 0 -3.5 0zM397.25 7 a1.75 1.75 0 1 0 3.5 0 a1.75 1.75 0 1 0 -3.5 0z" fill="black"></path><path d="M397.25 147 a1.75 1.75 0 1 0 3.5 0 a1.75 1.75 0 1 0 -3.5 0zM285.25 21 a1.75 1.75 0 1 0 3.5 0 a1.75 1.75 0 1 0 -3.5 0z" fill="black"></path><path d="M1209.25 105 a1.75 1.75 0 1 0 3.5 0 a1.75 1.75 0 1 0 -3.5 0zM1027.25 161 a1.75 1.75 0 1 0 3.5 0 a1.75 1.75 0 1 0 -3.5 0z" fill="black"></path><path d="M887.25 35 a1.75 1.75 0 1 0 3.5 0 a1.75 1.75 0 1 0 -3.5 0zM775.25 147 a1.75 1.75 0 1 0 3.5 0 a1.75 1.75 0 1 0 -3.5 0z" fill="black"></path><path d="M187.25 105 a1.75 1.75 0 1 0 3.5 0 a1.75 1.75 0 1 0 -3.5 0zM215.25 77 a1.75 1.75 0 1 0 3.5 0 a1.75 1.75 0 1 0 -3.5 0z" fill="black"></path><path d="M19.25 161 a1.75 1.75 0 1 0 3.5 0 a1.75 1.75 0 1 0 -3.5 0zM285.25 133 a1.75 1.75 0 1 0 3.5 0 a1.75 1.75 0 1 0 -3.5 0z" fill="black"></path><path d="M1125.25 119 a1.75 1.75 0 1 0 3.5 0 a1.75 1.75 0 1 0 -3.5 0zM1251.25 7 a1.75 1.75 0 1 0 3.5 0 a1.75 1.75 0 1 0 -3.5 0z" fill="black"></path><path d="M1209.25 175 a1.75 1.75 0 1 0 3.5 0 a1.75 1.75 0 1 0 -3.5 0zM1153.25 175 a1.75 1.75 0 1 0 3.5 0 a1.75 1.75 0 1 0 -3.5 0z" fill="black"></path><path d="M1293.25 147 a1.75 1.75 0 1 0 3.5 0 a1.75 1.75 0 1 0 -3.5 0zM1433.25 175 a1.75 1.75 0 1 0 3.5 0 a1.75 1.75 0 1 0 -3.5 0z" fill="black"></path><path d="M1223.25 91 a1.75 1.75 0 1 0 3.5 0 a1.75 1.75 0 1 0 -3.5 0zM1293.25 175 a1.75 1.75 0 1 0 3.5 0 a1.75 1.75 0 1 0 -3.5 0z" fill="black"></path><path d="M103.25 175 a1.75 1.75 0 1 0 3.5 0 a1.75 1.75 0 1 0 -3.5 0zM61.25 175 a1.75 1.75 0 1 0 3.5 0 a1.75 1.75 0 1 0 -3.5 0z" fill="black"></path><path d="M719.25 161 a1.75 1.75 0 1 0 3.5 0 a1.75 1.75 0 1 0 -3.5 0zM635.25 175 a1.75 1.75 0 1 0 3.5 0 a1.75 1.75 0 1 0 -3.5 0z" fill="black"></path><path d="M551.25 119 a1.75 1.75 0 1 0 3.5 0 a1.75 1.75 0 1 0 -3.5 0zM817.25 21 a1.75 1.75 0 1 0 3.5 0 a1.75 1.75 0 1 0 -3.5 0z" fill="black"></path><path d="M201.25 35 a1.75 1.75 0 1 0 3.5 0 a1.75 1.75 0 1 0 -3.5 0zM243.25 77 a1.75 1.75 0 1 0 3.5 0 a1.75 1.75 0 1 0 -3.5 0z" fill="black"></path><path d="M47.25 105 a1.75 1.75 0 1 0 3.5 0 a1.75 1.75 0 1 0 -3.5 0zM47.25 161 a1.75 1.75 0 1 0 3.5 0 a1.75 1.75 0 1 0 -3.5 0z" fill="black"></path><path d="M1279.25 119 a1.75 1.75 0 1 0 3.5 0 a1.75 1.75 0 1 0 -3.5 0zM1433.25 91 a1.75 1.75 0 1 0 3.5 0 a1.75 1.75 0 1 0 -3.5 0z" fill="black"></path><path d="M691.25 161 a1.75 1.75 0 1 0 3.5 0 a1.75 1.75 0 1 0 -3.5 0zM775.25 175 a1.75 1.75 0 1 0 3.5 0 a1.75 1.75 0 1 0 -3.5 0z" fill="black"></path><path d="M845.25 49 a1.75 1.75 0 1 0 3.5 0 a1.75 1.75 0 1 0 -3.5 0zM1111.25 49 a1.75 1.75 0 1 0 3.5 0 a1.75 1.75 0 1 0 -3.5 0z" fill="black"></path><path d="M677.25 49 a1.75 1.75 0 1 0 3.5 0 a1.75 1.75 0 1 0 -3.5 0zM467.25 147 a1.75 1.75 0 1 0 3.5 0 a1.75 1.75 0 1 0 -3.5 0z" fill="black"></path><path d="M1111.25 21 a1.75 1.75 0 1 0 3.5 0 a1.75 1.75 0 1 0 -3.5 0zM943.25 63 a1.75 1.75 0 1 0 3.5 0 a1.75 1.75 0 1 0 -3.5 0z" fill="black"></path><path d="M551.25 133 a1.75 1.75 0 1 0 3.5 0 a1.75 1.75 0 1 0 -3.5 0zM649.25 133 a1.75 1.75 0 1 0 3.5 0 a1.75 1.75 0 1 0 -3.5 0z" fill="black"></path><path d="M145.25 175 a1.75 1.75 0 1 0 3.5 0 a1.75 1.75 0 1 0 -3.5 0zM75.25 161 a1.75 1.75 0 1 0 3.5 0 a1.75 1.75 0 1 0 -3.5 0z" fill="black"></path><path d="M1013.25 119 a1.75 1.75 0 1 0 3.5 0 a1.75 1.75 0 1 0 -3.5 0zM789.25 161 a1.75 1.75 0 1 0 3.5 0 a1.75 1.75 0 1 0 -3.5 0z" fill="black"></path><path d="M1181.25 21 a1.75 1.75 0 1 0 3.5 0 a1.75 1.75 0 1 0 -3.5 0zM1223.25 7 a1.75 1.75 0 1 0 3.5 0 a1.75 1.75 0 1 0 -3.5 0z" fill="black"></path><path d="M1293.25 21 a1.75 1.75 0 1 0 3.5 0 a1.75 1.75 0 1 0 -3.5 0zM1223.25 63 a1.75 1.75 0 1 0 3.5 0 a1.75 1.75 0 1 0 -3.5 0z" fill="black"></path><path d="M1251.25 119 a1.75 1.75 0 1 0 3.5 0 a1.75 1.75 0 1 0 -3.5 0zM1251.25 91 a1.75 1.75 0 1 0 3.5 0 a1.75 1.75 0 1 0 -3.5 0z" fill="black"></path><path d="M117.25 63 a1.75 1.75 0 1 0 3.5 0 a1.75 1.75 0 1 0 -3.5 0zM117.25 119 a1.75 1.75 0 1 0 3.5 0 a1.75 1.75 0 1 0 -3.5 0z" fill="black"></path><path d="M355.25 35 a1.75 1.75 0 1 0 3.5 0 a1.75 1.75 0 1 0 -3.5 0zM299.25 21 a1.75 1.75 0 1 0 3.5 0 a1.75 1.75 0 1 0 -3.5 0z" fill="black"></path><path d="M803.25 161 a1.75 1.75 0 1 0 3.5 0 a1.75 1.75 0 1 0 -3.5 0zM1069.25 91 a1.75 1.75 0 1 0 3.5 0 a1.75 1.75 0 1 0 -3.5 0z" fill="black"></path><path d="M985.25 63 a1.75 1.75 0 1 0 3.5 0 a1.75 1.75 0 1 0 -3.5 0zM1181.25 7 a1.75 1.75 0 1 0 3.5 0 a1.75 1.75 0 1 0 -3.5 0z" fill="black"></path><path d="M663.25 105 a1.75 1.75 0 1 0 3.5 0 a1.75 1.75 0 1 0 -3.5 0zM831.25 7 a1.75 1.75 0 1 0 3.5 0 a1.75 1.75 0 1 0 -3.5 0z" fill="black"></path><path d="M1419.25 21 a1.75 1.75 0 1 0 3.5 0 a1.75 1.75 0 1 0 -3.5 0zM1265.25 63 a1.75 1.75 0 1 0 3.5 0 a1.75 1.75 0 1 0 -3.5 0z" fill="black"></path><path d="M243.25 175 a1.75 1.75 0 1 0 3.5 0 a1.75 1.75 0 1 0 -3.5 0zM313.25 175 a1.75 1.75 0 1 0 3.5 0 a1.75 1.75 0 1 0 -3.5 0z" fill="black"></path><path d="M579.25 91 a1.75 1.75 0 1 0 3.5 0 a1.75 1.75 0 1 0 -3.5 0zM467.25 161 a1.75 1.75 0 1 0 3.5 0 a1.75 1.75 0 1 0 -3.5 0z" fill="black"></path><path d="M1153.25 147 a1.75 1.75 0 1 0 3.5 0 a1.75 1.75 0 1 0 -3.5 0zM1041.25 161 a1.75 1.75 0 1 0 3.5 0 a1.75 1.75 0 1 0 -3.5 0z" fill="black"></path><path d="M1377.25 119 a1.75 1.75 0 1 0 3.5 0 a1.75 1.75 0 1 0 -3.5 0zM1433.25 161 a1.75 1.75 0 1 0 3.5 0 a1.75 1.75 0 1 0 -3.5 0z" fill="black"></path><path d="M47.25 49 a1.75 1.75 0 1 0 3.5 0 a1.75 1.75 0 1 0 -3.5 0zM61.25 147 a1.75 1.75 0 1 0 3.5 0 a1.75 1.75 0 1 0 -3.5 0z" fill="black"></path><path d="M705.25 21 a1.75 1.75 0 1 0 3.5 0 a1.75 1.75 0 1 0 -3.5 0zM607.25 35 a1.75 1.75 0 1 0 3.5 0 a1.75 1.75 0 1 0 -3.5 0z" fill="black"></path><path d="M145.25 105 a1.75 1.75 0 1 0 3.5 0 a1.75 1.75 0 1 0 -3.5 0zM131.25 21 a1.75 1.75 0 1 0 3.5 0 a1.75 1.75 0 1 0 -3.5 0z" fill="black"></path><path d="M159.25 175 a1.75 1.75 0 1 0 3.5 0 a1.75 1.75 0 1 0 -3.5 0zM131.25 147 a1.75 1.75 0 1 0 3.5 0 a1.75 1.75 0 1 0 -3.5 0z" fill="black"></path><path d="M215.25 175 a1.75 1.75 0 1 0 3.5 0 a1.75 1.75 0 1 0 -3.5 0zM145.25 147 a1.75 1.75 0 1 0 3.5 0 a1.75 1.75 0 1 0 -3.5 0z" fill="black"></path><path d="M1195.25 35 a1.75 1.75 0 1 0 3.5 0 a1.75 1.75 0 1 0 -3.5 0zM1125.25 35 a1.75 1.75 0 1 0 3.5 0 a1.75 1.75 0 1 0 -3.5 0z" fill="black"></path><path d="M1377.25 35 a1.75 1.75 0 1 0 3.5 0 a1.75 1.75 0 1 0 -3.5 0zM1279.25 63 a1.75 1.75 0 1 0 3.5 0 a1.75 1.75 0 1 0 -3.5 0z" fill="black"></path><path d="M565.25 21 a1.75 1.75 0 1 0 3.5 0 a1.75 1.75 0 1 0 -3.5 0zM467.25 35 a1.75 1.75 0 1 0 3.5 0 a1.75 1.75 0 1 0 -3.5 0z" fill="black"></path><path d="M243.25 7 a1.75 1.75 0 1 0 3.5 0 a1.75 1.75 0 1 0 -3.5 0zM173.25 7 a1.75 1.75 0 1 0 3.5 0 a1.75 1.75 0 1 0 -3.5 0z" fill="black"></path><path d="M621.25 7 a1.75 1.75 0 1 0 3.5 0 a1.75 1.75 0 1 0 -3.5 0zM719.25 7 a1.75 1.75 0 1 0 3.5 0 a1.75 1.75 0 1 0 -3.5 0z" fill="black"></path><path d="M33.25 49 a1.75 1.75 0 1 0 3.5 0 a1.75 1.75 0 1 0 -3.5 0zM33.25 21 a1.75 1.75 0 1 0 3.5 0 a1.75 1.75 0 1 0 -3.5 0z" fill="black"></path><path d="M957.25 35 a1.75 1.75 0 1 0 3.5 0 a1.75 1.75 0 1 0 -3.5 0zM999.25 35 a1.75 1.75 0 1 0 3.5 0 a1.75 1.75 0 1 0 -3.5 0z" fill="black"></path><path d="M1321.25 49 a1.75 1.75 0 1 0 3.5 0 a1.75 1.75 0 1 0 -3.5 0zM1391.25 35 a1.75 1.75 0 1 0 3.5 0 a1.75 1.75 0 1 0 -3.5 0z" fill="black"></path><path d="M733.25 35 a1.75 1.75 0 1 0 3.5 0 a1.75 1.75 0 1 0 -3.5 0zM691.25 63 a1.75 1.75 0 1 0 3.5 0 a1.75 1.75 0 1 0 -3.5 0z" fill="black"></path><path d="M1391.25 147 a1.75 1.75 0 1 0 3.5 0 a1.75 1.75 0 1 0 -3.5 0zM1335.25 161 a1.75 1.75 0 1 0 3.5 0 a1.75 1.75 0 1 0 -3.5 0z" fill="black"></path><path d="M355.25 63 a1.75 1.75 0 1 0 3.5 0 a1.75 1.75 0 1 0 -3.5 0zM425.25 7 a1.75 1.75 0 1 0 3.5 0 a1.75 1.75 0 1 0 -3.5 0z" fill="black"></path><path d="M411.25 35 a1.75 1.75 0 1 0 3.5 0 a1.75 1.75 0 1 0 -3.5 0zM299.25 35 a1.75 1.75 0 1 0 3.5 0 a1.75 1.75 0 1 0 -3.5 0z" fill="black"></path><path d="M929.25 21 a1.75 1.75 0 1 0 3.5 0 a1.75 1.75 0 1 0 -3.5 0zM1097.25 7 a1.75 1.75 0 1 0 3.5 0 a1.75 1.75 0 1 0 -3.5 0z" fill="black"></path><path d="M313.25 49 a1.75 1.75 0 1 0 3.5 0 a1.75 1.75 0 1 0 -3.5 0zM411.25 133 a1.75 1.75 0 1 0 3.5 0 a1.75 1.75 0 1 0 -3.5 0z" fill="black"></path><path d="M5.25 77 a1.75 1.75 0 1 0 3.5 0 a1.75 1.75 0 1 0 -3.5 0zM5.25 133 a1.75 1.75 0 1 0 3.5 0 a1.75 1.75 0 1 0 -3.5 0z" fill="black"></path><path d="M831.25 49 a1.75 1.75 0 1 0 3.5 0 a1.75 1.75 0 1 0 -3.5 0zM1055.25 91 a1.75 1.75 0 1 0 3.5 0 a1.75 1.75 0 1 0 -3.5 0z" fill="black"></path><path d="M75.25 77 a1.75 1.75 0 1 0 3.5 0 a1.75 1.75 0 1 0 -3.5 0zM75.25 21 a1.75 1.75 0 1 0 3.5 0 a1.75 1.75 0 1 0 -3.5 0z" fill="black"></path><path d="M1111.25 119 a1.75 1.75 0 1 0 3.5 0 a1.75 1.75 0 1 0 -3.5 0zM1195.25 63 a1.75 1.75 0 1 0 3.5 0 a1.75 1.75 0 1 0 -3.5 0z" fill="black"></path><path d="M761.25 63 a1.75 1.75 0 1 0 3.5 0 a1.75 1.75 0 1 0 -3.5 0zM803.25 49 a1.75 1.75 0 1 0 3.5 0 a1.75 1.75 0 1 0 -3.5 0z" fill="black"></path><path d="M915.25 91 a1.75 1.75 0 1 0 3.5 0 a1.75 1.75 0 1 0 -3.5 0zM1041.25 91 a1.75 1.75 0 1 0 3.5 0 a1.75 1.75 0 1 0 -3.5 0z" fill="black"></path><path d="M145.25 21 a1.75 1.75 0 1 0 3.5 0 a1.75 1.75 0 1 0 -3.5 0zM201.25 77 a1.75 1.75 0 1 0 3.5 0 a1.75 1.75 0 1 0 -3.5 0z" fill="black"></path><path d="M551.25 147 a1.75 1.75 0 1 0 3.5 0 a1.75 1.75 0 1 0 -3.5 0zM635.25 147 a1.75 1.75 0 1 0 3.5 0 a1.75 1.75 0 1 0 -3.5 0z" fill="black"></path><path d="M845.25 147 a1.75 1.75 0 1 0 3.5 0 a1.75 1.75 0 1 0 -3.5 0zM985.25 133 a1.75 1.75 0 1 0 3.5 0 a1.75 1.75 0 1 0 -3.5 0z" fill="black"></path><path d="M985.25 175 a1.75 1.75 0 1 0 3.5 0 a1.75 1.75 0 1 0 -3.5 0zM1013.25 147 a1.75 1.75 0 1 0 3.5 0 a1.75 1.75 0 1 0 -3.5 0z" fill="black"></path><path d="M369.25 119 a1.75 1.75 0 1 0 3.5 0 a1.75 1.75 0 1 0 -3.5 0zM411.25 105 a1.75 1.75 0 1 0 3.5 0 a1.75 1.75 0 1 0 -3.5 0z" fill="black"></path><path d="M327.25 105 a1.75 1.75 0 1 0 3.5 0 a1.75 1.75 0 1 0 -3.5 0zM341.25 49 a1.75 1.75 0 1 0 3.5 0 a1.75 1.75 0 1 0 -3.5 0z" fill="black"></path><path d="M1097.25 105 a1.75 1.75 0 1 0 3.5 0 a1.75 1.75 0 1 0 -3.5 0zM1041.25 147 a1.75 1.75 0 1 0 3.5 0 a1.75 1.75 0 1 0 -3.5 0z" fill="black"></path><path d="M733.25 63 a1.75 1.75 0 1 0 3.5 0 a1.75 1.75 0 1 0 -3.5 0zM761.25 49 a1.75 1.75 0 1 0 3.5 0 a1.75 1.75 0 1 0 -3.5 0z" fill="black"></path><path d="M621.25 91 a1.75 1.75 0 1 0 3.5 0 a1.75 1.75 0 1 0 -3.5 0zM663.25 63 a1.75 1.75 0 1 0 3.5 0 a1.75 1.75 0 1 0 -3.5 0z" fill="black"></path><path d="M509.25 91 a1.75 1.75 0 1 0 3.5 0 a1.75 1.75 0 1 0 -3.5 0zM509.25 63 a1.75 1.75 0 1 0 3.5 0 a1.75 1.75 0 1 0 -3.5 0z" fill="black"></path><path d="M747.25 119 a1.75 1.75 0 1 0 3.5 0 a1.75 1.75 0 1 0 -3.5 0zM719.25 77 a1.75 1.75 0 1 0 3.5 0 a1.75 1.75 0 1 0 -3.5 0z" fill="black"></path><path d="M663.25 161 a1.75 1.75 0 1 0 3.5 0 a1.75 1.75 0 1 0 -3.5 0zM719.25 119 a1.75 1.75 0 1 0 3.5 0 a1.75 1.75 0 1 0 -3.5 0z" fill="black"></path><path d="M845.25 105 a1.75 1.75 0 1 0 3.5 0 a1.75 1.75 0 1 0 -3.5 0zM831.25 63 a1.75 1.75 0 1 0 3.5 0 a1.75 1.75 0 1 0 -3.5 0z" fill="black"></path><path d="M943.25 175 a1.75 1.75 0 1 0 3.5 0 a1.75 1.75 0 1 0 -3.5 0zM901.25 175 a1.75 1.75 0 1 0 3.5 0 a1.75 1.75 0 1 0 -3.5 0z" fill="black"></path><path d="M579.25 161 a1.75 1.75 0 1 0 3.5 0 a1.75 1.75 0 1 0 -3.5 0zM621.25 161 a1.75 1.75 0 1 0 3.5 0 a1.75 1.75 0 1 0 -3.5 0z" fill="black"></path><path d="M1419.25 161 a1.75 1.75 0 1 0 3.5 0 a1.75 1.75 0 1 0 -3.5 0zM1391.25 119 a1.75 1.75 0 1 0 3.5 0 a1.75 1.75 0 1 0 -3.5 0z" fill="black"></path><path d="M103.25 77 a1.75 1.75 0 1 0 3.5 0 a1.75 1.75 0 1 0 -3.5 0zM75.25 105 a1.75 1.75 0 1 0 3.5 0 a1.75 1.75 0 1 0 -3.5 0z" fill="black"></path><path d="M145.25 35 a1.75 1.75 0 1 0 3.5 0 a1.75 1.75 0 1 0 -3.5 0zM201.25 119 a1.75 1.75 0 1 0 3.5 0 a1.75 1.75 0 1 0 -3.5 0z" fill="black"></path><path d="M243.25 63 a1.75 1.75 0 1 0 3.5 0 a1.75 1.75 0 1 0 -3.5 0zM187.25 21 a1.75 1.75 0 1 0 3.5 0 a1.75 1.75 0 1 0 -3.5 0z" fill="black"></path><path d="M593.25 105 a1.75 1.75 0 1 0 3.5 0 a1.75 1.75 0 1 0 -3.5 0zM607.25 63 a1.75 1.75 0 1 0 3.5 0 a1.75 1.75 0 1 0 -3.5 0z" fill="black"></path><path d="M159.25 63 a1.75 1.75 0 1 0 3.5 0 a1.75 1.75 0 1 0 -3.5 0zM173.25 105 a1.75 1.75 0 1 0 3.5 0 a1.75 1.75 0 1 0 -3.5 0z" fill="black"></path><path d="M1167.25 161 a1.75 1.75 0 1 0 3.5 0 a1.75 1.75 0 1 0 -3.5 0zM1209.25 119 a1.75 1.75 0 1 0 3.5 0 a1.75 1.75 0 1 0 -3.5 0z" fill="black"></path><path d="M1209.25 133 a1.75 1.75 0 1 0 3.5 0 a1.75 1.75 0 1 0 -3.5 0zM1181.25 161 a1.75 1.75 0 1 0 3.5 0 a1.75 1.75 0 1 0 -3.5 0z" fill="black"></path><path d="M537.25 91 a1.75 1.75 0 1 0 3.5 0 a1.75 1.75 0 1 0 -3.5 0zM523.25 63 a1.75 1.75 0 1 0 3.5 0 a1.75 1.75 0 1 0 -3.5 0z" fill="black"></path><path d="M1181.25 91 a1.75 1.75 0 1 0 3.5 0 a1.75 1.75 0 1 0 -3.5 0zM1139.25 119 a1.75 1.75 0 1 0 3.5 0 a1.75 1.75 0 1 0 -3.5 0z" fill="black"></path><path d="M803.25 77 a1.75 1.75 0 1 0 3.5 0 a1.75 1.75 0 1 0 -3.5 0zM747.25 63 a1.75 1.75 0 1 0 3.5 0 a1.75 1.75 0 1 0 -3.5 0z" fill="black"></path><path d="M1251.25 49 a1.75 1.75 0 1 0 3.5 0 a1.75 1.75 0 1 0 -3.5 0zM1279.25 21 a1.75 1.75 0 1 0 3.5 0 a1.75 1.75 0 1 0 -3.5 0z" fill="black"></path><path d="M33.25 77 a1.75 1.75 0 1 0 3.5 0 a1.75 1.75 0 1 0 -3.5 0zM5.25 21 a1.75 1.75 0 1 0 3.5 0 a1.75 1.75 0 1 0 -3.5 0z" fill="black"></path><path d="M523.25 175 a1.75 1.75 0 1 0 3.5 0 a1.75 1.75 0 1 0 -3.5 0zM481.25 161 a1.75 1.75 0 1 0 3.5 0 a1.75 1.75 0 1 0 -3.5 0z" fill="black"></path><path d="M747.25 21 a1.75 1.75 0 1 0 3.5 0 a1.75 1.75 0 1 0 -3.5 0zM775.25 21 a1.75 1.75 0 1 0 3.5 0 a1.75 1.75 0 1 0 -3.5 0z" fill="black"></path><path d="M775.25 105 a1.75 1.75 0 1 0 3.5 0 a1.75 1.75 0 1 0 -3.5 0zM733.25 77 a1.75 1.75 0 1 0 3.5 0 a1.75 1.75 0 1 0 -3.5 0z" fill="black"></path><path d="M1013.25 49 a1.75 1.75 0 1 0 3.5 0 a1.75 1.75 0 1 0 -3.5 0zM1041.25 63 a1.75 1.75 0 1 0 3.5 0 a1.75 1.75 0 1 0 -3.5 0z" fill="black"></path><path d="M887.25 49 a1.75 1.75 0 1 0 3.5 0 a1.75 1.75 0 1 0 -3.5 0zM831.25 35 a1.75 1.75 0 1 0 3.5 0 a1.75 1.75 0 1 0 -3.5 0z" fill="black"></path><path d="M915.25 35 a1.75 1.75 0 1 0 3.5 0 a1.75 1.75 0 1 0 -3.5 0zM915.25 7 a1.75 1.75 0 1 0 3.5 0 a1.75 1.75 0 1 0 -3.5 0z" fill="black"></path><path d="M1265.25 119 a1.75 1.75 0 1 0 3.5 0 a1.75 1.75 0 1 0 -3.5 0zM1265.25 91 a1.75 1.75 0 1 0 3.5 0 a1.75 1.75 0 1 0 -3.5 0z" fill="black"></path><path d="M1097.25 35 a1.75 1.75 0 1 0 3.5 0 a1.75 1.75 0 1 0 -3.5 0zM1041.25 35 a1.75 1.75 0 1 0 3.5 0 a1.75 1.75 0 1 0 -3.5 0z" fill="black"></path><path d="M257.25 7 a1.75 1.75 0 1 0 3.5 0 a1.75 1.75 0 1 0 -3.5 0zM229.25 35 a1.75 1.75 0 1 0 3.5 0 a1.75 1.75 0 1 0 -3.5 0z" fill="black"></path><path d="M537.25 21 a1.75 1.75 0 1 0 3.5 0 a1.75 1.75 0 1 0 -3.5 0zM607.25 7 a1.75 1.75 0 1 0 3.5 0 a1.75 1.75 0 1 0 -3.5 0z" fill="black"></path><path d="M649.25 77 a1.75 1.75 0 1 0 3.5 0 a1.75 1.75 0 1 0 -3.5 0zM607.25 105 a1.75 1.75 0 1 0 3.5 0 a1.75 1.75 0 1 0 -3.5 0z" fill="black"></path><path d="M1237.25 133 a1.75 1.75 0 1 0 3.5 0 a1.75 1.75 0 1 0 -3.5 0zM1237.25 91 a1.75 1.75 0 1 0 3.5 0 a1.75 1.75 0 1 0 -3.5 0z" fill="black"></path><path d="M33.25 63 a1.75 1.75 0 1 0 3.5 0 a1.75 1.75 0 1 0 -3.5 0zM19.25 21 a1.75 1.75 0 1 0 3.5 0 a1.75 1.75 0 1 0 -3.5 0z" fill="black"></path><path d="M901.25 35 a1.75 1.75 0 1 0 3.5 0 a1.75 1.75 0 1 0 -3.5 0zM887.25 7 a1.75 1.75 0 1 0 3.5 0 a1.75 1.75 0 1 0 -3.5 0z" fill="black"></path><path d="M691.25 119 a1.75 1.75 0 1 0 3.5 0 a1.75 1.75 0 1 0 -3.5 0zM663.25 147 a1.75 1.75 0 1 0 3.5 0 a1.75 1.75 0 1 0 -3.5 0z" fill="black"></path><path d="M1321.25 133 a1.75 1.75 0 1 0 3.5 0 a1.75 1.75 0 1 0 -3.5 0zM1321.25 161 a1.75 1.75 0 1 0 3.5 0 a1.75 1.75 0 1 0 -3.5 0z" fill="black"></path><path d="M215.25 105 a1.75 1.75 0 1 0 3.5 0 a1.75 1.75 0 1 0 -3.5 0zM243.25 119 a1.75 1.75 0 1 0 3.5 0 a1.75 1.75 0 1 0 -3.5 0z" fill="black"></path><path d="M565.25 91 a1.75 1.75 0 1 0 3.5 0 a1.75 1.75 0 1 0 -3.5 0zM579.25 63 a1.75 1.75 0 1 0 3.5 0 a1.75 1.75 0 1 0 -3.5 0z" fill="black"></path><path d="M33.25 133 a1.75 1.75 0 1 0 3.5 0 a1.75 1.75 0 1 0 -3.5 0zM33.25 161 a1.75 1.75 0 1 0 3.5 0 a1.75 1.75 0 1 0 -3.5 0z" fill="black"></path><path d="M1055.25 49 a1.75 1.75 0 1 0 3.5 0 a1.75 1.75 0 1 0 -3.5 0zM1083.25 49 a1.75 1.75 0 1 0 3.5 0 a1.75 1.75 0 1 0 -3.5 0z" fill="black"></path><path d="M537.25 147 a1.75 1.75 0 1 0 3.5 0 a1.75 1.75 0 1 0 -3.5 0zM537.25 175 a1.75 1.75 0 1 0 3.5 0 a1.75 1.75 0 1 0 -3.5 0z" fill="black"></path><path d="M467.25 63 a1.75 1.75 0 1 0 3.5 0 a1.75 1.75 0 1 0 -3.5 0zM495.25 49 a1.75 1.75 0 1 0 3.5 0 a1.75 1.75 0 1 0 -3.5 0z" fill="black"></path><path d="M887.25 63 a1.75 1.75 0 1 0 3.5 0 a1.75 1.75 0 1 0 -3.5 0zM929.25 63 a1.75 1.75 0 1 0 3.5 0 a1.75 1.75 0 1 0 -3.5 0z" fill="black"></path><path d="M355.25 77 a1.75 1.75 0 1 0 3.5 0 a1.75 1.75 0 1 0 -3.5 0zM341.25 119 a1.75 1.75 0 1 0 3.5 0 a1.75 1.75 0 1 0 -3.5 0z" fill="black"></path><path d="M495.25 147 a1.75 1.75 0 1 0 3.5 0 a1.75 1.75 0 1 0 -3.5 0zM523.25 161 a1.75 1.75 0 1 0 3.5 0 a1.75 1.75 0 1 0 -3.5 0z" fill="black"></path><path d="M215.25 147 a1.75 1.75 0 1 0 3.5 0 a1.75 1.75 0 1 0 -3.5 0zM173.25 147 a1.75 1.75 0 1 0 3.5 0 a1.75 1.75 0 1 0 -3.5 0z" fill="black"></path><path d="M495.25 105 a1.75 1.75 0 1 0 3.5 0 a1.75 1.75 0 1 0 -3.5 0zM495.25 77 a1.75 1.75 0 1 0 3.5 0 a1.75 1.75 0 1 0 -3.5 0z" fill="black"></path><path d="M383.25 119 a1.75 1.75 0 1 0 3.5 0 a1.75 1.75 0 1 0 -3.5 0zM411.25 119 a1.75 1.75 0 1 0 3.5 0 a1.75 1.75 0 1 0 -3.5 0z" fill="black"></path><path d="M117.25 21 a1.75 1.75 0 1 0 3.5 0 a1.75 1.75 0 1 0 -3.5 0zM89.25 63 a1.75 1.75 0 1 0 3.5 0 a1.75 1.75 0 1 0 -3.5 0z" fill="black"></path><path d="M817.25 147 a1.75 1.75 0 1 0 3.5 0 a1.75 1.75 0 1 0 -3.5 0zM901.25 133 a1.75 1.75 0 1 0 3.5 0 a1.75 1.75 0 1 0 -3.5 0z" fill="black"></path><path d="M593.25 91 a1.75 1.75 0 1 0 3.5 0 a1.75 1.75 0 1 0 -3.5 0zM593.25 63 a1.75 1.75 0 1 0 3.5 0 a1.75 1.75 0 1 0 -3.5 0z" fill="black"></path><path d="M663.25 77 a1.75 1.75 0 1 0 3.5 0 a1.75 1.75 0 1 0 -3.5 0zM649.25 105 a1.75 1.75 0 1 0 3.5 0 a1.75 1.75 0 1 0 -3.5 0z" fill="black"></path><path d="M1265.25 133 a1.75 1.75 0 1 0 3.5 0 a1.75 1.75 0 1 0 -3.5 0zM1265.25 161 a1.75 1.75 0 1 0 3.5 0 a1.75 1.75 0 1 0 -3.5 0z" fill="black"></path><path d="M327.25 91 a1.75 1.75 0 1 0 3.5 0 a1.75 1.75 0 1 0 -3.5 0zM355.25 91 a1.75 1.75 0 1 0 3.5 0 a1.75 1.75 0 1 0 -3.5 0z" fill="black"></path><path d="M355.25 21 a1.75 1.75 0 1 0 3.5 0 a1.75 1.75 0 1 0 -3.5 0zM411.25 21 a1.75 1.75 0 1 0 3.5 0 a1.75 1.75 0 1 0 -3.5 0z" fill="black"></path><path d="M61.25 63 a1.75 1.75 0 1 0 3.5 0 a1.75 1.75 0 1 0 -3.5 0zM61.25 91 a1.75 1.75 0 1 0 3.5 0 a1.75 1.75 0 1 0 -3.5 0z" fill="black"></path><path d="M691.25 7 a1.75 1.75 0 1 0 3.5 0 a1.75 1.75 0 1 0 -3.5 0zM649.25 7 a1.75 1.75 0 1 0 3.5 0 a1.75 1.75 0 1 0 -3.5 0z" fill="black"></path><path d="M761.25 105 a1.75 1.75 0 1 0 3.5 0 a1.75 1.75 0 1 0 -3.5 0zM733.25 91 a1.75 1.75 0 1 0 3.5 0 a1.75 1.75 0 1 0 -3.5 0z" fill="black"></path><path d="M5.25 175 a1.75 1.75 0 1 0 3.5 0 a1.75 1.75 0 1 0 -3.5 0zM5.25 147 a1.75 1.75 0 1 0 3.5 0 a1.75 1.75 0 1 0 -3.5 0z" fill="black"></path><path d="M61.25 49 a1.75 1.75 0 1 0 3.5 0 a1.75 1.75 0 1 0 -3.5 0zM61.25 21 a1.75 1.75 0 1 0 3.5 0 a1.75 1.75 0 1 0 -3.5 0z" fill="black"></path><path d="M243.25 147 a1.75 1.75 0 1 0 3.5 0 a1.75 1.75 0 1 0 -3.5 0zM229.25 175 a1.75 1.75 0 1 0 3.5 0 a1.75 1.75 0 1 0 -3.5 0z" fill="black"></path><path d="M873.25 63 a1.75 1.75 0 1 0 3.5 0 a1.75 1.75 0 1 0 -3.5 0zM859.25 35 a1.75 1.75 0 1 0 3.5 0 a1.75 1.75 0 1 0 -3.5 0z" fill="black"></path><path d="M285.25 161 a1.75 1.75 0 1 0 3.5 0 a1.75 1.75 0 1 0 -3.5 0zM257.25 175 a1.75 1.75 0 1 0 3.5 0 a1.75 1.75 0 1 0 -3.5 0z" fill="black"></path><path d="M1153.25 49 a1.75 1.75 0 1 0 3.5 0 a1.75 1.75 0 1 0 -3.5 0zM1111.25 63 a1.75 1.75 0 1 0 3.5 0 a1.75 1.75 0 1 0 -3.5 0z" fill="black"></path></mask></defs></svg>