<svg xmlns="http://www.w3.org/2000/svg" version="1.1" xmlns:xlink="http://www.w3.org/1999/xlink" xmlns:svgjs="http://svgjs.dev/svgjs" width="1440" height="560" preserveAspectRatio="none" viewBox="0 0 1440 560"><g mask="url(&quot;#SvgjsMask1104&quot;)" fill="none"><path d="M1512 560L0 560 L0 449.11Q65.8 394.91, 120 460.71Q144.44 413.14, 192 437.58Q270.97 396.55, 312 475.53Q362.93 406.45, 432 457.38Q479.43 384.81, 552 432.24Q608.01 416.25, 624 472.26Q675.13 403.39, 744 454.52Q793.91 384.44, 864 434.35Q917.98 416.33, 936 470.31Q961.04 423.35, 1008 448.39Q1073.35 393.74, 1128 459.08Q1196.4 407.48, 1248 475.88Q1294.14 402.02, 1368 448.17Q1398.92 407.09, 1440 438.01Q1493.15 419.16, 1512 472.32z" fill="rgba(234, 234, 243, 1)"></path><path d="M1464 560L0 560 L0 506.32Q55.23 441.55, 120 496.78Q172.09 428.87, 240 480.96Q268.66 437.62, 312 466.27Q392.09 426.36, 432 506.45Q482.78 437.23, 552 488.01Q605.67 421.68, 672 475.35Q721.36 452.71, 744 502.06Q771.88 457.94, 816 485.83Q845.92 443.75, 888 473.68Q959.61 425.29, 1008 496.9Q1062.86 431.76, 1128 486.62Q1153.33 439.94, 1200 465.27Q1280.26 425.53, 1320 505.8Q1350.04 463.84, 1392 493.87Q1413.85 443.72, 1464 465.57z" fill="rgba(217, 217, 226, 1)"></path><path d="M1464 560L0 560 L0 516.95Q62.59 459.54, 120 522.12Q164.31 494.43, 192 538.74Q207.26 482, 264 497.26Q336.87 450.13, 384 523Q451.2 470.2, 504 537.41Q544.85 458.25, 624 499.1Q674.04 477.14, 696 527.19Q724.07 483.26, 768 511.33Q798 469.32, 840 499.32Q894.55 481.87, 912 536.42Q964.33 468.75, 1032 521.08Q1061.34 478.42, 1104 507.77Q1176.56 460.33, 1224 532.89Q1277.27 466.16, 1344 519.44Q1398.27 453.72, 1464 507.99z" fill="rgba(200, 200, 210, 1)"></path><path d="M1560 560L0 560 L0 529.48Q37.61 495.09, 72 532.69Q149.93 490.63, 192 568.56Q244.52 501.08, 312 553.6Q363.15 484.75, 432 535.9Q507.86 491.76, 552 567.62Q578.88 522.5, 624 549.38Q674.64 480.02, 744 530.67Q797.41 512.08, 816 565.48Q865.06 494.54, 936 543.6Q990.86 478.46, 1056 533.32Q1133.31 490.63, 1176 567.94Q1203.49 523.43, 1248 550.92Q1296.72 479.64, 1368 528.37Q1424.87 513.24, 1440 570.1Q1493.97 504.08, 1560 558.05z" fill="rgba(248, 248, 250, 1)"></path></g><defs><mask id="SvgjsMask1104"><rect width="1440" height="560" fill="#ffffff"></rect></mask></defs></svg>