<svg xmlns="http://www.w3.org/2000/svg" version="1.1" xmlns:xlink="http://www.w3.org/1999/xlink" xmlns:svgjs="http://svgjs.dev/svgjs" width="1440" height="560" preserveAspectRatio="none" viewBox="0 0 1440 560"><g mask="url(&quot;#SvgjsMask1087&quot;)" fill="none"><path d="M1488 560L0 560 L0 432.81Q72.38 385.19, 120 457.56Q173.92 391.48, 240 445.39Q314.92 400.31, 360 475.23Q375.5 418.73, 432 434.23Q479.14 409.37, 504 456.51Q547.14 427.65, 576 470.8Q596.69 419.5, 648 440.19Q714.35 386.53, 768 452.88Q837.38 402.26, 888 471.65Q930.02 393.67, 1008 435.69Q1078.95 386.64, 1128 457.59Q1169.78 427.37, 1200 469.15Q1221.32 418.46, 1272 439.78Q1314.14 409.92, 1344 452.06Q1391.29 427.35, 1416 474.63Q1431.37 418, 1488 433.36z" fill="rgba(248, 231, 239, 1)"></path><path d="M1536 560L0 560 L0 475.04Q69.38 424.42, 120 493.79Q185.71 439.5, 240 505.22Q259.31 452.54, 312 471.85Q379.5 419.35, 432 486.84Q499.8 434.64, 552 502.44Q574.77 453.21, 624 475.98Q667.25 447.23, 696 490.48Q719 441.48, 768 464.47Q823.39 447.87, 840 503.26Q868.58 459.84, 912 488.42Q960.93 417.35, 1032 466.28Q1111.03 425.3, 1152 504.33Q1178.46 458.79, 1224 485.26Q1250.83 440.09, 1296 466.91Q1355.26 406.17, 1416 465.42Q1485.54 414.96, 1536 484.49z" fill="rgba(243, 209, 220, 1)"></path><path d="M1464 560L0 560 L0 499.58Q44.78 472.36, 72 517.13Q140.2 465.33, 192 533.53Q210.91 480.44, 264 499.36Q305.73 469.09, 336 510.82Q404.86 459.68, 456 528.55Q521.88 474.43, 576 540.31Q620.37 464.67, 696 509.04Q763.94 456.98, 816 524.92Q862.48 451.4, 936 497.88Q991.88 481.76, 1008 537.64Q1031.69 489.33, 1080 513.02Q1145.89 458.91, 1200 524.81Q1222.87 475.68, 1272 498.55Q1327.48 482.03, 1344 537.51Q1390.44 463.95, 1464 510.39z" fill="rgba(234, 193, 208, 1)"></path><path d="M1464 560L0 560 L0 566.63Q16.69 511.32, 72 528.01Q140.16 476.17, 192 544.34Q259.15 491.49, 312 558.64Q354.72 529.36, 384 572.07Q422.25 490.32, 504 528.56Q576.17 480.73, 624 552.9Q666.42 523.32, 696 565.74Q739.08 488.82, 816 531.9Q882.79 478.69, 936 545.49Q983.38 520.88, 1008 568.26Q1026.71 514.98, 1080 533.69Q1128 509.69, 1152 557.69Q1219.05 504.74, 1272 571.78Q1319.72 499.5, 1392 547.23Q1434.12 517.35, 1464 559.46z" fill="rgba(219, 170, 194, 1)"></path></g><defs><mask id="SvgjsMask1087"><rect width="1440" height="560" fill="#ffffff"></rect></mask></defs></svg>