<svg xmlns="http://www.w3.org/2000/svg" version="1.1" xmlns:xlink="http://www.w3.org/1999/xlink" xmlns:svgjs="http://svgjs.dev/svgjs" width="1440" height="250" preserveAspectRatio="none" viewBox="0 0 1440 250"><g mask="url(&quot;#SvgjsMask1021&quot;)" fill="none"><path d="M8 250L258 0L340.5 0L90.5 250z" fill="url(&quot;#SvgjsLinearGradient1022&quot;)"></path><path d="M257.6 250L507.6 0L636.6 0L386.6 250z" fill="url(&quot;#SvgjsLinearGradient1022&quot;)"></path><path d="M497.20000000000005 250L747.2 0L1087.7 0L837.7 250z" fill="url(&quot;#SvgjsLinearGradient1022&quot;)"></path><path d="M718.8000000000001 250L968.8000000000001 0L1046.8000000000002 0L796.8000000000001 250z" fill="url(&quot;#SvgjsLinearGradient1022&quot;)"></path><path d="M1394 250L1144 0L995.5 0L1245.5 250z" fill="url(&quot;#SvgjsLinearGradient1023&quot;)"></path><path d="M1171.4 250L921.4000000000001 0L688.9000000000001 0L938.9000000000001 250z" fill="url(&quot;#SvgjsLinearGradient1023&quot;)"></path><path d="M961.8 250L711.8 0L533.3 0L783.3 250z" fill="url(&quot;#SvgjsLinearGradient1023&quot;)"></path><path d="M680.1999999999999 250L430.19999999999993 0L376.19999999999993 0L626.1999999999999 250z" fill="url(&quot;#SvgjsLinearGradient1023&quot;)"></path><path d="M1197.251768903748 250L1440 7.251768903747973L1440 250z" fill="url(&quot;#SvgjsLinearGradient1022&quot;)"></path><path d="M0 250L242.74823109625203 250L 0 7.251768903747973z" fill="url(&quot;#SvgjsLinearGradient1023&quot;)"></path></g><defs><mask id="SvgjsMask1021"><rect width="1440" height="250" fill="#ffffff"></rect></mask><linearGradient x1="0%" y1="100%" x2="100%" y2="0%" id="SvgjsLinearGradient1022"><stop stop-color="rgba(253, 221, 232, 1)" offset="0"></stop><stop stop-opacity="0" stop-color="rgba(253, 221, 232, 1)" offset="0.66"></stop></linearGradient><linearGradient x1="100%" y1="100%" x2="0%" y2="0%" id="SvgjsLinearGradient1023"><stop stop-color="rgba(253, 221, 232, 1)" offset="0"></stop><stop stop-opacity="0" stop-color="rgba(253, 221, 232, 1)" offset="0.66"></stop></linearGradient></defs></svg>